<svg xmlns="http://www.w3.org/2000/svg" viewBox="0 0 1569.04 1295.68"><defs><style>.a{fill:#fec600}</style></defs><path class="a" d="M1569.04 532.01v11.56c-88.55 6.64-146.45 10.21-146.72 8.2s57.76-9.51 146.72-19.76m0 23.3v15.34c-146.61 11.66-254.31 19.33-254.75 16.59s107.69-15.66 254.75-31.91m0 25.22v9.38c-60 4.22-96.89 6.17-97.13 4.56s36.82-6.72 97.13-13.94m0 16.91v14.06c-126.11 9.87-215 15.95-215.35 13.45s88.79-13.37 215.35-27.51m0-142.66v16.1c-150.9 26.69-263.62 45.66-264.4 42.87s112.6-27.38 264.4-59m0 17.32v1.7c-2 .09-3.06 0-3.14-.23s1-.78 3.14-1.47m0 11.75v3.63c-8.92 1.12-13.79 1.46-13.94.89s4.7-2.14 13.94-4.52m-20.61-63.83c.29.68 7.55-.71 20.61-3.82v-4.63c-13.61 4.79-20.93 7.74-20.61 8.45m-138.41 24.35c.88 2 64.35-14.51 159-40.48v-13c-95.91 30.31-159.92 51.43-159 53.51m88.9-42.14c.57 1.31 26.66-5 70.12-16.46v-8.6c-44.4 14.5-70.68 23.73-70.12 25.06m70.12-121.84v20.16c-176.87 68.59-321.79 123.66-323.57 120.64s145-65.88 323.57-140.8m0 30.44v19c-160 61.88-285.6 109.38-287.27 106.58s125.58-57.54 287.27-125.57m0-113.23v39.1c-191.91 97.58-361.64 182.58-364.08 179.46-1.84-2.39 92.93-55.31 221.12-125.31-90.79 45.43-152.67 75.33-154.12 73.43-2.19-2.85 132.25-77.14 297.08-166.69m0-119.41v64.1c-177.22 113.94-333.77 213.2-336.6 210.29-2.61-2.69 126.25-92.09 282.35-198.74-158.79 101.85-291 185.33-293.59 182.66-2.33-2.42 101.6-74.94 236.07-167.06-62.92 39.51-103.72 64.21-105.15 62.74-2.24-2.3 91.87-68.14 216.92-153.95M1525.05 0c-186.09 149.74-369.24 295.56-372.86 292.57S1313.58 148.23 1488.35 0zm37.93 0c-106.54 84.81-185.7 146.5-188.07 144.54s66.31-62 162.48-144.54zm-202.15 0c-72 70.94-122 118.92-124.17 117.46S1276.92 69.02 1340.94 0zm33.3 0c-83.92 83-144.35 141.38-146.76 139.78S1296.97 81 1372.37 0zm-127.15 0c-122.38 154-230.59 288.2-234.37 286.2-2.3-1.2 33.47-51.6 87.78-125.73-51.91 64.06-86.9 105.83-89 104.71-3.57-1.87 84.2-121.81 190.89-265.18zm-144.53 0c-78.66 127.37-140.78 225.76-144.13 224.4s50.41-98.46 121.81-224.4zm32.36 0c-39.85 63.31-66.54 104.08-68.7 103.21S1105.37 62.05 1139.79 0zm-109.59 0c-55.08 120.44-97.36 210.15-100.64 209.18S976.43 119.31 1025.15 0zm-97.05 0c-40.25 132.23-72.1 232.82-75.61 232.14S893.86 131.48 928.05 0zm30.13 0c-38.19 125.15-67.88 218.55-71.28 217.91s19.54-93.5 51.8-217.91zM838.93 0h13c-11 64.19-18.91 105.12-21.16 104.89s1.25-41 8.14-104.89m36.59 0c-10.19 59.1-17.47 96.31-19.63 96.1s1-37.3 7.2-96.1zM750.9 0h11.4c-1.8 51.07-3.71 82.57-5.69 82.57S752.73 51.07 750.9 0m34.52 0c-2.21 78-4.63 129.38-7.18 129.38s-5-51.42-7.17-129.38zM662.78 0c10.06 89.31 15.89 150 13.14 150.31S662.02 89.65 647.15 0zm59.86 251.92c-3.71.39-22.57-109.84-45.32-251.92h20.41c16.82 141.69 28.65 251.56 25 251.92M584.8 0h7.57c4.83 21.43 7 33.69 5.83 33.92s-6-12.08-13.4-33.92m40.54 192.01c-3.16.61-29.05-80.09-63.37-192h18.26c28.68 111.19 48.21 191.43 45.11 192M458.61 0c42.58 104.7 71.92 179.75 69 180.62s-39-74.84-87.55-180.62zm18.12 0c34.91 86.49 57.72 145.69 55.1 146.46S500.49 87.53 460.04 0zm113.68 212.24c-3.3 1-46.27-90.26-102-212.24h20.2c49.34 120.86 85.06 211.31 81.8 212.24M373.41 0h20.87c63.45 112.21 109.17 195.47 106.13 196.7s-56.63-83-127-196.7m164.03 312.04c-4.08 1.65-95.7-145.22-198.07-312h26.43c94.48 165.58 175.66 310.42 171.64 312M264.73 0c125.42 168 239.14 322.37 235.12 324.47S369.39 169.31 235.12 0zm268.59 327.23C529.2 329.4 401.46 170.31 266.37 0h29.75c126.25 169.06 241.22 325.11 237.2 327.23M98.64 0c97.09 103.67 169.14 182.24 166.39 184.06S179.97 105.72 73.65 0zm231.74 210.72c-3.06 2-99.16-92.15-218.17-210.72h46.52c74.67 80.24 126 136.81 123.68 138.31S232.1 93.65 162.34 24.93c97.89 104.51 170.79 184 168 185.79m64.55 144.9c-2.22 1.83-71.78-52.15-168.12-128.68 57.62 50 94.18 82.85 92.49 84.22C315.99 313.87 166.14 195.09 0 61.71v-48.4c194.56 164.65 398.79 339.08 394.89 342.3M0 143.31V121.7c137.94 94.49 245.67 169.57 243.28 172S135.49 229.94 0 143.31m327.99 260.54c-2.79 2.87-154.33-93.17-328-204.75v-25.13c175.79 119.83 330.85 226.93 328 229.88m77.47 24.54c-3.18 3.29-202-123.48-405.46-254.62v-28c204.88 139.25 408.73 279.25 405.46 282.62m-210.68-61.68c-1.67 2.17-82.28-37.28-194.78-93.83v-17.07c114.62 62.74 196.48 108.67 194.78 110.9M0 342.76v-6.45c22.81 10.29 35.5 16.5 34.95 17.43S21.89 350.57 0 342.76m270.47 132.37c-1.61 2.7-118.58-41.4-270.47-100.09v-18.4c153.61 64.72 272.09 115.74 270.47 118.49m-190.23-2.4c-.61 1.4-30.73-6-80.24-19.13v-9.23c50.49 16.39 80.85 26.94 80.24 28.36m180.12 32.52c-1.17 2.71-112.32-27.24-260.36-68.49v-16.79c149.39 46.54 261.56 82.55 260.36 85.28m32.82 61.56c-.83 2.94-127.18-18.5-291.45-47.66 39.38 8.81 62.42 14.55 62.07 15.81s-23.94-2-63.8-8.41v-32.47c56.72 12.39 91.3 20.62 90.87 22.17-.33 1.18-21-1.59-56.31-7.21 148.9 31 259.4 55 258.62 57.77M131.47 628.2c-.28 1.89-51.59-1.15-131.47-7v-10.98c80.28 9.35 131.72 16.08 131.47 18m85.16-7.25c-.36 2.5-89.85-3.62-216.63-13.57v-14.09c127.23 14.22 217 25.16 216.63 27.67M16.1 665.69c98.89 1.86 164.77 3.92 164.77 6.08S107.81 676.19 0 678.13v-28.59c167.2 2.39 295.26 5.19 295.26 8.2s-119.92 5.62-279.16 8M.04 744.31a.46.46 0 0 1 0 .13v-.2a.13.13 0 0 1 0 .07M0 736.89v-16.58c167-13.49 295.16-22.87 295.59-19.87S167.44 718.56 0 736.89m325.91 1.42c.45 3.19-143.94 19.91-325.91 39.71v-17.39c181.52-14.77 325.46-25.47 325.91-22.3M0 823.97v-9.54c58.47-9.75 94.56-15.11 95-13.54s-35.82 10.19-95 23.08m219.8-22.96c.71 2.51-90.92 22.66-219.8 49.66v-14.65c128-22.44 219.1-37.51 219.8-35M83.06 869.14C83.73 870.6 52.17 881.5 0 898.4v-9.37c51.17-13.63 82.44-21.31 83.06-19.89M0 987.37v-27.14c147.88-57.11 260.73-99.59 262.28-96.92 1.12 1.86-52.93 25.9-135.64 61.32 34.54-12.67 55-19.59 55.7-18.47 1.3 2.21-73.88 35.13-182.34 81.22m391.73-138.27c2 3.45-184 82.5-391.71 169.36v-22.25c206.21-80.27 389.71-150.5 391.71-147.11m-341 227.07c56.49-27.84 92.08-44.61 93.18-43.16 1.45 1.88-56.7 34.93-143.86 83v-50.89c149.74-75.82 267.28-134.1 269.3-131.48 1.43 1.87-55.39 34.18-140.86 81.29 134-67.6 235-117.43 236.88-115 2.28 3-142 82.49-314.69 176.25M0 1196.48v-23.89c160.22-102.79 294.2-187.42 296.8-184.73S162.51 1085.52 0 1196.48m0 32.93v-24.23c164-105.24 302.65-192.93 305.3-190.19s-139.1 101-305.3 214.42m321.91-146.54c2.86 2.36-106.75 97.27-242.34 212.81H15.09c210.09-169.51 450.64-362 454.8-358.58 3.24 2.69-137.1 123.48-296.24 258.67 85.89-68 146.2-114.6 148.26-112.9m83.98 29.33c2.73 1.81-69.08 80.1-165.86 183.48h-84.36c146.78-146.86 278.94-277.4 282.54-275 2.73 1.8-68.88 79.88-165.45 183 53.17-52 88.12-85.06 90-83.86 1.2.81-12.18 16.58-35.85 42.87 87.63-86.8 151.49-148.6 154-147s-57.62 67.62-142.18 158.13c40.15-39 65.58-62.64 67.13-61.62m-24.45 141.11c1.26.66-9 16.18-27.49 42.33h-10.46c22.72-27.29 36.64-43 37.95-42.33m-59.93 42.37h-21.34c80-99.7 139.33-172 142.11-170.56s-48.5 72.61-120.77 170.56m127.58 0h-24.12c89.08-144.68 163.14-262.63 166.8-261.16s-61.21 117.88-142.68 261.16m117.03-54.03c1.51.45-5.49 20.47-18.42 54h-10.06c16.48-34.32 26.91-54.5 28.48-54m-41.05 54.03h-15.12c34.07-73.3 57.5-121.47 59.9-120.76s-15.79 48.45-44.78 120.76m90.02 0h-16.82c30-97.06 51.84-164.44 54.72-163.88s-13.23 67.51-37.9 163.88m18.93 0h-16.65c29.34-95 50.68-160.6 53.52-160s-12.78 65.77-36.87 160m84.81 0h-5c2.25-10.23 3.86-15.76 4.68-15.68s.89 5.59.28 15.68m27.77 0h-18.69c19.95-123.18 35.83-214.14 39.21-213.83s-6.12 91-20.52 213.83m52.66 0h-3.55c.59-5.33 1.2-8.16 1.79-8.16s1.19 2.83 1.76 8.16m48.86 0h-18.66c2.73-124.69 5.93-217 9.32-217s6.59 92.27 9.34 217m59.86 0h-27.83c-11.54-100.77-18.54-171.22-15.58-171.5s14.44 63.51 29.83 156.6c-4.74-46.43-6.86-74.84-5-75 2.1-.19 8.95 34.42 18.58 89.92m14.31-.02h-9.59c-3.49-36-4.88-57.46-3.25-57.62s6.25 21.31 12.84 57.62m57.23 0h-21.06c-37-141.88-64.72-252.83-61.06-253.53s38.86 110.91 82.12 253.53m36.86 0h-15.22c-20.44-80.64-33.11-134.6-30.56-135.09s20.5 53.76 45.78 135.09m68.09 0h-7.67c-7.49-20.13-11.21-31.66-10.06-32s7.53 11.27 17.77 32m30.75 0h-23.46c-64.1-155.66-115.7-284.2-111.83-285.35s64.21 128.66 135.34 285.35m76.58 0h-18.45c-50.78-90.39-85.12-153.63-82.47-154.7s43.77 62.92 100.92 154.7m47.68 0h-41.21c-86-151-156.17-276.8-152.43-278.31 2.36-1 33.84 47.52 79.69 120.69-40.24-72.15-66-120.28-63.72-121.22 3.82-1.54 83.82 126.23 177.67 278.84m86.12 0h-35.89c-74.53-100.92-127.82-174.88-125-176.34s58.27 66.14 134.21 160.71c-32.68-45.22-52.21-73.61-50.5-74.5 2-1 31.85 34.39 77.19 90.13m22.39 0h-15.36c-39.22-54-63.42-88.77-61.54-89.76s31.73 34.23 76.9 89.76m140.06 0h-53.15c-85.54-91.57-146.53-158.41-144-160.08 2.12-1.41 48.7 43.16 116.56 110-136.16-144.49-253.87-271.12-250.38-273.44 4-2.64 166.14 158.24 331 323.53m80.93-39.38v27.29c-155.81-132.44-291.45-249.26-288.27-251.88s134.96 101.69 288.27 224.59m0-130.86v23.59c-159.4-108.86-292.37-201-289.72-203.77s132.64 79.44 289.72 180.18m0 31.86v23.16c-154.86-105.82-282.17-194.19-279.58-196.86s127.07 76 279.58 173.7m0-144.28v46.4c-111.17-60.89-189.91-105.12-188.23-107.31 1.08-1.41 35.31 14.65 89.87 41.52-155.51-84.59-279.09-153-277-155.77 1.23-1.62 46.19 19.81 115.42 54.16-36-20.37-56.94-32.93-56.07-34.06 2.21-2.9 144.66 68.14 316 155.06m.01-104.14v16.58c-128.8-54.48-222.37-95.13-220.92-97.58s93.85 32.12 220.92 81m0 18.98v9.85c-50.07-21.8-80.28-35.66-79.45-37.08s30.67 9.09 79.45 27.23m0 19.27v17.4c-140.08-59.12-244.59-104.34-243.06-106.93s104.73 36.2 243.06 89.53m0-103.34v15.94c-136.25-42.6-235.59-74.65-234.47-77.23s99.53 23.81 234.47 61.29m0-87.36v27.12c-89.18-19-147.53-32.26-147-34.27.43-1.52 34.81 3.54 90.77 12.85-144.69-30.16-251.11-53.34-250.34-56 .84-3 135 19.81 306.53 50.34m.04 31.07V803c-141.61-29.54-245-52.1-244.3-54.77s103.6 14.51 244.3 39.32m0-114.89v14.41c-132.11-14.76-226.24-26.14-225.86-28.76s94.2 3.92 225.86 14.31m0 33.01v16c-158.34-17.41-277.56-31.48-277.15-34.38s119.27 5.7 277.15 18.38"/></svg>