<svg width="750" height="725" xmlns="http://www.w3.org/2000/svg"><g fill="#4DA671" fill-rule="evenodd"><path d="M761 263v6.83c-43.454 3.922-71.865 6.026-72 4.84-.134-1.196 28.344-5.614 72-11.67m0 14v9.45c-71.936 7.194-124.807 11.893-125 10.206-.182-1.696 52.843-9.648 125-19.656m0 15v5.819c-29.63 2.623-47.882 3.829-48 2.834-.105-1.005 18.195-4.17 48-8.653m-1 10v8.513c-61.489 5.98-104.827 9.658-105 8.148-.172-1.51 43.291-8.1 105-16.661m1-86v9.782c-74.194 16.221-129.612 27.747-129.998 26.053-.386-1.702 55.36-16.642 129.998-35.835m-10.11-20.918c.143.414 3.703-.434 10.11-2.327v-2.819c-6.677 2.918-10.264 4.712-10.11 5.146m-67.885 14.815c.432 1.242 31.56-8.832 77.995-24.633v-7.935c-47.04 18.453-78.438 31.306-77.995 32.568m43.605-25.648c.279.798 13.073-3.026 34.39-10.015V169c-21.779 8.822-34.669 14.44-34.39 15.249M761 111v12.162c-86.907 41.37-158.115 74.584-158.992 72.767-.896-1.856 71.275-39.74 158.992-84.929m0 18v11.479c-78.51 37.42-140.174 66.145-140.992 64.45C619.18 203.196 681.643 170.133 761 129m-1-68v23.603c-93.821 58.92-176.798 110.252-177.987 108.346-.901-1.447 45.43-33.39 108.098-75.65-44.384 27.398-74.635 45.477-75.345 44.333C613.693 159.91 679.42 115.06 760 61m0-73v38.75c-86.606 68.926-163.11 128.976-164.49 127.212-1.274-1.626 61.696-55.71 137.98-120.227-77.597 61.618-142.197 112.115-143.471 110.498-1.14-1.46 49.648-45.334 115.359-101.062-30.747 23.906-50.683 38.847-51.383 37.956C652.903 79.735 698.89 39.907 760-12m-20-47c-91.318 90.573-181.193 178.785-182.973 176.973-1.723-1.753 79.2-87.31 164.965-176.973H740zm18 0c-52.1 51.03-90.813 88.152-91.973 86.973-1.112-1.13 32.43-37.327 79.456-86.973H758zm-99 0c-35.34 42.87-59.883 71.86-60.963 70.98-1.04-.842 19.77-29.275 51.199-70.98H659zm16 0c-41.15 50.466-70.781 85.955-71.963 84.98-1.145-.945 24.321-35.735 61.317-84.98H675zm-63 0c-59.704 93.086-112.49 174.19-114.337 172.987-1.119-.725 16.332-31.188 42.826-75.995-25.326 38.717-42.395 63.964-43.439 63.288-1.721-1.126 41.095-73.624 93.145-160.28H612zm-70 0c-38.712 77.188-69.28 136.816-70.93 135.992-1.612-.805 24.824-59.668 59.946-135.992H542zm16 0c-19.681 38.03-32.863 62.517-33.929 61.992-1.045-.506 9.511-24.72 26.51-61.992H558zm-54 0c-26.761 73.12-47.309 127.585-48.9 126.995-1.564-.579 15.477-54.544 39.151-126.995H504zm-48 0c-19.61 79.742-35.13 140.408-36.84 139.998-1.7-.41 10.379-60.705 27.034-139.998H456zm15 0c-18.667 75.811-33.181 132.39-34.84 131.998-1.64-.392 9.548-56.638 25.32-131.998H471zm-67.558 0H410c-5.542 38.553-9.521 63.136-10.657 63-1.136-.127.631-24.642 4.099-63M377-59c-1.08 46.997-2.257 78-3.5 78-1.243 0-2.42-31.003-3.5-78h7zm-60.57 0c4.783 54.077 7.553 90.842 6.247 91-1.305.155-6.61-36.706-13.677-91h7.43zm30.232 152c-1.854.214-11.287-66.277-22.662-152h10.179c8.413 85.489 14.327 151.784 12.483 152m-48.82-36.002C296.307 57.37 283.706 8.613 267-59h8.887c13.956 67.173 23.464 115.647 21.956 115.998M217.11-59C237.974 4.176 252.35 49.467 250.9 49.995 249.429 50.532 231.804 4.832 208-59h9.11z"/><path d="M225.13-59c16.963 52.553 28.047 88.523 26.77 88.995-1.306.473-15.248-35.812-34.9-88.995h8.13zM280.9 68.995C279.286 69.581 258.27 14.561 231-59h9.88c24.143 72.886 41.612 127.42 40.02 127.995M175-59h10.178C216.1 8.878 238.414 59.247 236.93 59.992 235.42 60.746 209.317 9.75 175-59m79.93 188.992c-1.996 1-46.83-87.953-96.93-188.992h12.937c46.234 100.283 85.961 188.01 83.993 188.992M121.537-59c61.566 101.476 117.386 194.715 115.412 195.987C234.936 138.287 172.908 43.268 107-59h14.537zM253.95 138.987C251.93 140.3 189.27 44.07 123-59h14.595c61.93 102.286 118.327 196.703 116.355 197.987M40.268-59C87.923 3.512 123.311 50.888 121.963 51.98 120.576 53.114 80.2 4.744 28-59h12.268zM153.963 67.98C152.463 69.2 105.346 12.455 47-59h22.789c36.625 48.352 61.79 82.444 60.655 83.371-1.059.86-24.664-26.937-58.868-68.35 47.992 62.982 83.732 110.867 82.387 111.96m31.01 87.992c-1.083 1.106-35.079-31.533-82.158-77.804 28.16 30.24 46.025 50.09 45.2 50.922C146.415 130.727 73.19 58.906-8-21.738V-51c95.078 99.555 194.88 205.024 192.973 206.973M-8 28.057V15c67.462 57.1 120.151 102.474 118.98 103.962C109.85 120.402 58.263 80.41-8 28.057m160.98 156.905C151.615 186.695 77.233 128.64-8 61.193V46c86.28 72.438 162.387 137.18 160.98 138.962m38 15C189.424 201.951 91.842 125.268-8 45.94V29c100.544 84.237 200.59 168.924 198.98 170.962M86.988 162.95c-.813 1.31-40.123-22.506-94.987-56.645V96c55.897 37.873 95.82 65.6 94.987 66.949M-8 148.062V144c11.09 6.449 17.259 10.347 16.992 10.926-.248.548-6.35-1.97-16.992-6.864m131.992 80.866c-.785 1.642-57.87-25.13-131.992-60.76V157c74.965 39.287 132.785 70.257 131.992 71.928M30.996 226.9c-.297.83-14.937-3.552-38.996-11.399V210c24.536 9.767 39.291 16.041 38.996 16.9m89 19.997c-.58 1.646-55.22-16.576-127.996-41.677V195c73.442 28.323 128.583 50.232 127.995 51.897m16.003 36.941c-.405 1.768-62.463-11.148-143.151-28.728 19.343 5.311 30.663 8.767 30.49 9.527-.174.762-11.762-1.19-31.337-5.065V240c27.859 7.467 44.842 12.425 44.631 13.363-.164.713-10.327-.956-27.657-4.344 73.136 18.684 127.41 33.15 127.024 34.82M56 320.666c-.135 1.125-25.112-.682-64-4.18V310c39.079 5.545 64.124 9.543 64 10.667m42-4.002c-.174 1.501-43.966-2.185-106-8.172V300c62.256 8.561 106.172 15.153 106 16.665M-.093 343.603c48.564 1.107 80.918 2.331 80.918 3.612 0 1.347-35.879 2.628-88.826 3.785v-17c82.113 1.417 145 3.082 145 4.874 0 1.724-58.89 3.342-137.092 4.73M-8 386v-9.84c81.914-8.03 144.788-13.61 145-11.827.202 1.793-62.865 10.756-145 21.667m160 1.334c.22 1.901-70.665 11.862-160 23.666v-10.376c89.113-8.802 159.779-15.182 160-13.29M-8 439v-5.72c28.929-5.845 46.784-9.06 46.998-8.118.223.952-17.72 6.108-46.998 13.838m107.998-13.838C100.344 426.67 55.322 438.777-8 455v-8.798c62.888-13.488 107.651-22.539 107.998-21.04m-67.003 41.941c.31.892-15.246 7.562-40.995 17.897v-5.728c25.256-8.344 40.687-13.04 40.995-12.169M-8 538v-16.392c72.165-34.487 127.227-60.142 127.992-58.537.546 1.124-25.831 15.64-66.192 37.029 16.854-7.648 26.856-11.825 27.181-11.149C81.613 490.281 44.927 510.164-8 538m191.992-82.929c1 2.097-90.209 50.14-191.992 102.929v-13.523c101.082-48.783 191.011-91.464 191.992-89.406M16.827 591.88c27.671-16.875 45.11-27.037 45.648-26.162C63.185 566.857 34.699 586.893-8 616v-30.845C65.376 539.22 122.957 503.9 123.946 505.49c.702 1.129-27.133 20.715-69.004 49.271 65.632-40.976 115.123-71.182 116.045-69.71 1.115 1.786-69.543 49.998-154.16 106.829M-8 665v-14.424c78.263-62.067 143.707-113.162 144.981-111.538C138.294 540.71 71.384 598.005-8 665m0 20v-14.686c80.55-63.788 148.68-116.935 149.98-115.276C143.33 556.746 73.649 616.244-8 685m158.424-88.772c1.404 1.43-52.337 58.86-118.81 128.772H0c103-102.568 220.935-219.05 222.973-216.973 1.587 1.626-67.212 74.715-145.233 156.517 42.107-41.17 71.674-69.346 72.684-68.316m39.895 18.012c1.333 1.095-33.769 48.355-81.083 110.76H68c71.754-88.655 136.355-167.455 138.118-166.018 1.334 1.085-33.671 48.219-80.88 110.486 25.991-31.402 43.077-51.347 43.979-50.623.584.488-5.955 10.01-17.527 25.879 42.838-52.394 74.055-89.702 75.273-88.704 1.227.997-28.14 40.76-69.462 95.42 19.625-23.542 32.06-37.816 32.818-37.2m-11.37 84.774c.627.407-4.486 9.93-13.73 25.986H160c11.34-16.75 18.292-26.415 18.948-25.986M149.503 725H139c39.357-60.202 68.578-103.877 69.949-102.987 1.342.86-23.873 43.842-59.446 102.987m62.346 0H200c43.754-87.525 80.129-158.883 81.93-157.992 1.763.882-30.065 71.31-70.081 157.992m57.052-32.995c.738.277-2.68 12.503-8.99 32.995H255c8.042-20.957 13.135-33.281 13.9-32.995M249.297 725H242c16.438-44.31 27.746-73.426 28.901-72.995 1.135.42-7.619 29.283-21.605 72.995m43.958 0H285c14.69-58.632 25.427-99.332 26.84-98.998 1.396.332-6.484 40.807-18.586 98.998m9.785 0H295c14.166-57.568 24.468-97.332 25.841-96.998 1.364.335-6.174 39.861-17.802 96.998m41.734-1H342c1.26-5.876 2.158-9.045 2.619-9 .46.047.494 3.209.154 9m13.6 1H349c10.002-74.314 17.97-129.185 19.66-129 1.683.196-3.068 54.91-10.287 129M384 725h-2c.331-3.264.675-5 1.007-5 .33 0 .674 1.736.993 5m23 0h-9c1.315-75.289 2.859-131 4.495-131 1.638 0 3.181 55.711 4.505 131m30 0h-13.89c-5.754-61.11-9.25-103.832-7.77-104 1.409-.166 7.202 38.51 14.887 94.964-2.369-28.158-3.426-45.385-2.496-45.493 1.047-.118 4.463 20.87 9.269 54.529m7 0h-4.964c-1.807-21.887-2.528-34.9-1.685-35 .852-.098 3.238 12.946 6.649 35m28-1h-10.219c-17.956-85.618-31.401-152.578-29.623-152.998 1.8-.429 18.85 66.93 39.842 152.998m18 1h-7.593c-10.196-48.947-16.517-81.703-15.245-81.998 1.292-.305 10.225 32.628 22.838 81.998m34 0h-3.86c-3.75-11.949-5.615-18.793-5.036-18.995.59-.21 3.77 6.69 8.896 18.995m14 0h-11.449c-31.208-94.368-56.332-172.298-54.452-172.995 1.92-.708 31.265 77.999 65.901 172.995m38 0h-9.13c-25.12-54.917-42.109-93.342-40.8-93.992 1.34-.658 21.657 38.229 49.93 93.992m23 0h-20.201c-42.153-91.538-76.566-167.755-74.729-168.668 1.154-.579 16.587 28.799 39.066 73.145-19.73-43.728-32.374-72.9-31.24-73.469 1.875-.932 41.095 76.503 87.104 168.992m43 0h-17.59c-36.569-61.227-62.716-106.102-61.36-106.987 1.319-.855 28.591 40.13 65.854 97.506-16.034-27.436-25.618-44.661-24.78-45.2.962-.63 15.627 20.86 37.876 54.681m11 0h-7.578c-19.357-32.497-31.3-53.393-30.371-53.987.967-.614 15.66 20.584 37.949 53.987m68 0h-26.01c-41.856-55.47-71.705-95.96-70.467-96.97 1.037-.854 23.832 26.147 57.04 66.625-66.628-87.522-124.233-164.233-122.526-165.636C560.995 527.42 640.34 624.871 721 725m40-24.466V717c-76.193-79.905-142.527-150.39-140.973-151.973 1.506-1.534 65.978 61.348 140.973 135.507m0-78.773V636c-78.114-65.692-143.279-121.31-141.981-122.962 1.26-1.603 65.003 47.937 141.981 108.723m0 19.243V655c-75.875-63.949-138.25-117.347-136.981-118.962 1.229-1.566 62.259 45.901 136.981 104.966m0-87.056V582c-54.49-36.815-93.09-63.557-92.263-64.878.529-.852 17.305 8.86 44.05 25.105-76.227-51.141-136.803-92.52-135.774-94.175.606-.98 22.64 11.975 56.577 32.743-17.642-12.318-27.909-19.906-27.486-20.592 1.086-1.752 70.91 41.194 154.896 93.745m0-62.963V501c-62.96-32.901-108.701-57.451-107.992-58.928.7-1.457 45.876 19.395 107.992 48.913m0 11.925V509c-24.573-13.481-39.396-22.055-38.992-22.927.395-.84 15.054 5.62 38.992 16.837m0 11.527V525c-68.574-35.897-119.74-63.356-118.992-64.929.74-1.535 51.272 21.98 118.992 54.366m0-63.115V461c-66.823-25.868-115.544-45.333-114.995-46.897.538-1.544 48.816 14.459 114.995 37.219m0-52.724V415c-43.64-11.495-72.192-19.506-71.913-20.72.21-.921 17.035 2.135 44.416 7.766-70.8-18.235-122.875-32.248-122.501-33.883.413-1.83 66.04 11.976 149.998 30.435m0 19.139V427c-69.556-17.71-120.364-31.236-119.998-32.838.366-1.593 50.885 8.7 119.998 23.575m0-69.6V357c-64.926-9.052-111.183-16.073-111-17.656.174-1.574 46.295 2.41 111 8.793m0 19.246V377c-77.696-10.463-136.203-18.922-136-20.664.203-1.732 58.525 3.427 136 11.047"/></g></svg>