<svg viewBox="0 0 572.8 523" xmlns="http://www.w3.org/2000/svg"><circle cx="286.6" cy="261.5" fill="#fced23" r="261.5"/><path d="M286.6 506.6c-65.5 0-127-25.5-173.3-71.8S41.5 327 41.5 261.5s25.5-127 71.8-173.3 107.8-71.8 173.3-71.8 127 25.5 173.3 71.8 71.8 107.9 71.8 173.3c0 65.5-25.5 127-71.8 173.3s-107.8 71.8-173.3 71.8z" fill="#3f3f41"/><path d="M286.6 367c-58.2 0-105.5-47.3-105.5-105.5S228.4 156 286.6 156s105.5 47.3 105.5 105.5S344.8 367 286.6 367z" fill="#065f98"/><path d="M286.6 162c55 0 99.5 44.5 99.5 99.5S341.6 361 286.6 361s-99.5-44.5-99.5-99.5 44.5-99.5 99.5-99.5m0-12c-29.8 0-57.8 11.6-78.8 32.7-21.1 21.1-32.7 49.1-32.7 78.8s11.6 57.8 32.7 78.8c21.1 21.1 49.1 32.7 78.8 32.7s57.8-11.6 78.8-32.7c21.1-21.1 32.7-49.1 32.7-78.8s-11.6-57.8-32.7-78.8c-21-21.1-49-32.7-78.8-32.7z" fill="#1d1a1a"/><g fill="#656568"><path d="M286.6 398c-75.3 0-136.5-61.2-136.5-136.5S211.3 125 286.6 125s136.5 61.2 136.5 136.5S361.9 398 286.6 398zm0-271c-74.2 0-134.5 60.3-134.5 134.5S212.4 396 286.6 396s134.5-60.3 134.5-134.5S360.8 127 286.6 127z"/><path d="M286.6 424.4c-89.8 0-162.9-73.1-162.9-162.9S196.8 98.6 286.6 98.6s162.9 73.1 162.9 162.9-73.1 162.9-162.9 162.9zm0-323.8c-88.7 0-160.9 72.2-160.9 160.9s72.2 160.9 160.9 160.9 160.9-72.2 160.9-160.9-72.2-160.9-160.9-160.9z"/><path d="M286.6 453.5c-105.9 0-192-86.1-192-192s86.1-192 192-192 192 86.1 192 192-86.1 192-192 192zm0-382c-104.8 0-190 85.2-190 190s85.2 190 190 190 190-85.2 190-190-85.2-190-190-190z"/><path d="M286.6 478c-57.8 0-112.2-22.5-153.1-63.4s-63.4-95.3-63.4-153.1 22.5-112.2 63.4-153.1S228.8 45 286.6 45s112.2 22.5 153.1 63.4 63.4 95.3 63.4 153.1-22.5 112.2-63.4 153.1S344.4 478 286.6 478zm0-431c-57.3 0-111.2 22.3-151.7 62.8s-62.8 94.4-62.8 151.7 22.3 111.2 62.8 151.7S229.3 476 286.6 476s111.2-22.3 151.7-62.8 62.8-94.4 62.8-151.7-22.3-111.2-62.8-151.7S343.9 47 286.6 47z"/></g><path d="M286.6 22.4c132.1 0 239.1 107.1 239.1 239.1s-107 239.1-239.1 239.1-239.1-107-239.1-239.1 107-239.1 239.1-239.1m0-12c-33.9 0-66.8 6.6-97.8 19.7-29.9 12.6-56.7 30.8-79.8 53.8-23.1 23.1-41.2 49.9-53.8 79.8-13.1 31-19.7 63.9-19.7 97.8s6.6 66.8 19.7 97.8c12.6 29.9 30.8 56.8 53.8 79.8 23.1 23.1 49.9 41.2 79.8 53.8 31 13.1 63.9 19.7 97.8 19.7s66.8-6.6 97.8-19.7c29.9-12.6 56.8-30.8 79.8-53.8 23.1-23.1 41.2-49.9 53.8-79.8 13.1-31 19.7-63.9 19.7-97.8s-6.6-66.8-19.7-97.8c-12.6-29.9-30.8-56.8-53.8-79.8-23.1-23.1-49.9-41.2-79.8-53.8-31-13.1-63.9-19.7-97.8-19.7z" fill="#231f20"/></svg>