<svg width="1068" height="1237" xmlns="http://www.w3.org/2000/svg"><g transform="rotate(90 912.238 343.238)" fill="#DB8491" fill-rule="evenodd"><path d="M1804.294 1291.854c11.917.59 20.703-7.376 21.055-19.1.336-11.192-7.96-20.258-18.915-20.667-10.894-.404-20.308 8.149-20.858 18.944-.572 11.116 7.659 20.27 18.718 20.823m1.554-1108.718c-10.65-.2-20.148 9.16-20.298 20.002-.15 10.876 8.93 19.795 20.164 19.807 11.152.01 19.436-8.104 19.642-19.237.206-11.362-8.323-20.36-19.508-20.572m.508 1017.182c10.861.016 19.096-8.249 19.003-19.068-.099-10.683-8.58-18.894-19.358-18.751-10.812.137-18.735 8.506-18.456 19.485.269 10.639 8.158 18.323 18.811 18.334m-45.795 45.782c10.852.11 19.232-8.443 19.01-19.42-.203-10.436-8.66-18.536-19.208-18.398-10.493.133-18.663 8.477-18.608 18.99.056 10.501 8.258 18.723 18.806 18.828m-43.522 43.794c10.316.022 18.833-8.68 18.744-19.157-.09-10.694-8.233-18.714-18.955-18.664-10.638.045-18.948 8.352-18.865 18.858.089 10.417 8.666 18.94 19.076 18.963m88.432-1017.164c-10.719.503-18.225 8.8-17.924 19.811.3 10.676 8.196 18.319 18.575 17.978 12.211-.402 19.55-7.967 19.227-19.816-.273-10.235-9.377-18.47-19.878-17.973m-44.433-43.811c-10.808-.163-19.154 7.892-19.282 18.6-.122 10.41 8.535 19.207 18.915 19.218 9.952.012 18.53-8.353 18.892-18.42.384-10.517-7.95-19.24-18.525-19.398m-44.354-43.795c-10.1.068-18.67 8.63-18.721 18.685-.057 10.567 8.61 19.225 19.138 19.135 10.211-.084 18.58-8.478 18.681-18.73.102-10.617-8.442-19.163-19.098-19.09m89.908 925.618c10.548-.01 18.704-7.75 18.767-17.83.062-10.259-7.752-17.857-18.517-17.998-10.628-.152-18.989 7.354-19.296 17.31-.301 10.226 8.23 18.524 19.046 18.518m-1.64-748.445c-9.556.352-17.337 8.267-17.413 17.713-.087 10.311 8.215 18.416 18.517 18.096 10.073-.313 17.473-8.196 17.31-18.432-.157-9.803-8.568-17.74-18.413-17.377m-43.54 792.232c9.956.251 18.024-7.686 18.161-17.863.137-10.215-7.598-17.983-17.883-17.962-10 .017-18.112 8.205-17.943 18.104.164 9.56 8.064 17.48 17.664 17.721m-43.36 45.786c9.933-.167 17.792-8.163 17.731-18.04-.06-10.402-8.152-18.096-18.687-17.778-10.177.313-17.327 7.962-17.14 18.325.178 10.017 8.08 17.66 18.096 17.493m87.471-179.15c10.12-.066 17.923-7.915 17.845-17.95-.072-10.009-7.981-17.88-17.984-17.88-9.981 0-17.896 7.994-17.845 18.013.061 10.136 7.88 17.89 17.984 17.818m-42.39-702.638c-10.585-.616-19.047 6.862-19.378 17.133-.313 9.716 7.03 18.1 16.304 18.621 11.28.639 18.958-6.323 19.496-17.666.459-9.832-6.503-17.51-16.421-18.088m-91.059 925.582c10.297-.056 18.096-7.973 17.922-18.184-.179-10.234-8.169-17.867-18.465-17.64-10.005.215-17.312 7.695-17.362 17.776-.05 10.455 7.536 18.105 17.905 18.048m45.484-969.408c-10.083.156-17.762 8.204-17.604 18.438.153 9.877 7.73 17.328 17.689 17.39 10.184.067 18.162-7.814 18.14-17.914-.012-9.933-8.29-18.065-18.225-17.914m-89.78 1015.183c9.823.318 18.26-7.702 18.426-17.497.156-9.651-8.246-18.33-17.757-18.324-9.64 0-18.17 8.528-18.07 18.078.1 9.483 7.9 17.441 17.4 17.743m178.314-838.01c-9.97-.382-18.335 7.504-18.55 17.502-.208 9.734 7.24 17.821 16.85 18.292 10.145.492 18.567-7.063 18.96-17.015.412-10.07-7.244-18.393-17.26-18.78m-45.067 615.073c9.457-.147 16.614-7.91 16.56-17.962-.06-9.865-7.52-17.746-16.917-17.865-9.17-.107-16.868 7.96-16.922 17.77-.07 10.498 7.309 18.215 17.28 18.057m-89.134-836.036c-10.05.215-17.79 8.008-17.722 17.838.057 10.256 8.328 18.275 18.532 17.98 9.72-.283 17.483-8.522 17.295-18.342-.189-9.814-8.345-17.685-18.105-17.476m135.498 700.68c9.896.015 17.935-7.445 17.97-16.684.028-8.99-8.148-16.958-17.616-17.152-10.25-.216-18.3 7.407-18.214 17.25.085 9.492 7.708 16.569 17.86 16.585m-1.205-390.152c-9.538.07-16.71 7.45-16.656 17.135.06 9.717 7.253 16.79 16.987 16.703 9.69-.087 16.986-7.456 16.85-17.01-.14-9.4-7.794-16.9-17.18-16.828M1761.2 408.072c-9.783-.196-17.123 6.676-17.444 16.32-.316 9.596 6.73 17.172 16.285 17.505 9.462.328 17.15-6.85 17.531-16.369.37-9.35-7.051-17.27-16.372-17.456m-133.865-222.948c-9.777.087-16.974 7.219-16.958 16.811.01 9.343 7.658 17.018 16.974 17.028 9.11.017 16.936-7.903 16.865-17.06-.065-9.68-7.294-16.86-16.881-16.779m178.68 656.889c9.664.115 17.337-7.265 17.354-16.71.022-8.998-7.39-16.77-16.312-17.116-9.452-.363-17.31 7.056-17.523 16.539-.218 9.967 6.641 17.166 16.48 17.287m-.68-87.615c9.745.554 17.563-6.483 18.017-16.223.422-9.063-6.81-17.03-15.948-17.557-9.318-.531-17.103 6.235-17.815 15.487-.766 9.905 5.984 17.74 15.746 18.293m.526-89.547c9.726.121 17.53-7.352 17.509-16.783-.017-9.012-7.542-16.75-16.584-17.047-9.331-.302-17.272 7.496-17.256 16.954.022 9.343 7.192 16.76 16.331 16.876m-88.524 445.888c9.28-.154 16.462-7.504 16.457-16.821-.017-9.528-7.842-17.248-17.225-17.01-8.97.232-16.588 8.012-16.615 16.987-.033 9.434 7.782 17.01 17.383 16.844m43.3-133.372c9.072.255 16.815-7.259 16.948-16.438.133-9.638-7.366-17.4-16.804-17.395-9.05.005-16.732 7.469-17.025 16.554-.305 9.406 7.117 17.002 16.881 17.28m-43.706-613.092c-9.282-.033-17.364 8.302-16.963 17.484.369 8.533 8.496 16.566 16.54 16.351 9.942-.264 17.48-8.099 17.282-17.979-.165-8.428-8.033-15.823-16.859-15.856m-43.97 790.258c9.21.106 17.034-7.659 17.04-16.9.006-9.32-7.618-16.939-16.95-16.939-9.67.006-16.85 7.16-16.89 16.833-.039 9.588 7.18 16.888 16.8 17.006m87.9-656.89c-9.483-.061-17.092 7.399-17.114 16.779-.017 9.397 7.475 16.993 16.84 17.06 9.624.068 16.887-7.087 16.998-16.744.112-9.521-7.24-17.032-16.724-17.094m-87.725-177.162c-9.628-.011-17.009 7.354-16.975 16.944.029 9.478 7.681 17.03 17.133 16.894 8.892-.125 16.522-7.74 16.703-16.661.198-9.381-7.454-17.171-16.861-17.177m-134.63 967.388c10.117.552 17.688-6.062 18.11-15.837.416-9.644-6.904-17.69-16.35-17.964-8.875-.261-16.975 7.268-17.449 16.207-.496 9.258 6.493 17.094 15.688 17.594m90.519-87.556c9.307.17 17.11-7.528 17.184-16.971.068-9.131-7.068-16.495-16.336-16.852-9.663-.368-17.33 6.843-17.5 16.461-.176 9.647 7.062 17.187 16.652 17.362m-45.51 43.795c9.853.074 17.018-7.107 16.91-16.958-.097-9.174-7.471-16.73-16.48-16.879-9.518-.159-17.279 7.38-17.358 16.85-.085 9.824 6.983 16.919 16.927 16.987m-1023.404 43.793c9.734.051 17.327-7.481 17.157-17.026-.17-9.102-7.735-16.669-16.816-16.811-9.314-.154-17.14 7.811-17.02 17.316.12 9.347 7.315 16.464 16.68 16.521m1069.393-1013.2c-9.412-.183-16.883 6.925-17.128 16.304-.257 9.635 7.384 17.561 16.893 17.532 8.813-.022 16.848-8.028 16.94-16.87.09-8.983-7.59-16.789-16.705-16.966m86.898 746.46c8.534-.149 15.408-7.407 15.402-16.266-.005-9.316-7.733-17.706-16.176-17.569-8.767.143-15.684 7.692-15.673 17.106.005 10.026 6.77 16.906 16.447 16.729m45.752-133.375c8.807-.307 15.471-7.665 15.433-17.042-.032-9.32-6.804-16.638-15.525-16.786-9.157-.148-16.361 7.306-16.324 16.894.038 9.531 7.517 17.247 16.416 16.934m-.34-300.567c-9.168-.07-15.97 6.483-16.075 15.479-.109 9.341 7.071 16.576 16.233 16.365 8.905-.205 15.654-7.175 15.615-16.117-.049-9.2-6.524-15.652-15.773-15.727m-.642 209c9.14.288 16.174-6.275 16.41-15.299.23-8.618-6.92-16.268-15.462-16.533-8.559-.27-16.208 7.022-16.378 15.603-.191 9.224 6.197 15.938 15.43 16.23m-178.438-565.315c-8.504 0-16.005 7.36-16.146 15.845-.14 8.485 7.127 15.845 15.799 16.002 8.606.151 15.96-7.01 16.048-15.64.092-8.517-7.36-16.207-15.701-16.207M560.07 187.129c-9.047-.36-16.167 6.109-16.623 15.097-.445 8.738 6.416 16.364 15.055 16.724 8.667.365 16.254-6.518 16.748-15.185.504-8.777-6.351-16.287-15.18-16.636m1158.07 266.73c-8.926-.272-16.04 6.634-16.195 15.71-.16 9.272 6.305 15.977 15.556 16.13 9.257.152 16.14-6.395 16.288-15.492.149-9.065-6.563-16.07-15.649-16.348m-179.69-266.742c-9.148.164-15.837 7.058-15.656 16.151.17 8.641 7.674 15.846 16.346 15.693 8.88-.158 15.677-7.325 15.496-16.342-.18-9.165-6.967-15.665-16.186-15.502m239.134 505.693c-.038-9.131-7.128-16.155-16.153-16.012-9.169.144-15.879 7.173-15.692 16.426.187 8.988 6.666 15.344 15.714 15.42 9.328.073 16.175-6.648 16.131-15.834m-105.577 372.144c8.315.22 15.957-7.191 16.001-15.495.055-9.208-6.794-16.305-15.77-16.35-8.732-.043-15.818 6.74-16.072 15.386-.264 8.877 6.805 16.228 15.841 16.459m45.96-133.364c9.11-.017 15.78-6.655 15.825-15.748.044-9.06-6.564-15.9-15.55-16.097-9.252-.202-16.438 6.97-16.297 16.265.134 9.037 6.877 15.597 16.021 15.58m-.468-388.152c-8.809.322-15.732 7.612-15.552 16.373.186 8.712 7.497 15.619 16.368 15.463 8.854-.155 15.687-7.334 15.473-16.257-.22-8.728-7.706-15.896-16.29-15.58m-45.52-133.376c-8.748.134-15.95 7.43-15.816 16.007.135 8.678 7.64 16.091 16.03 15.834 7.841-.241 15.744-8.36 15.817-16.254.09-8.61-7.236-15.727-16.03-15.587m-177.153 832.058c8.604.103 15.753-6.803 16.015-15.473.263-8.91-7.029-16.398-15.935-16.375-9.17.017-16.13 7.145-15.902 16.278.217 8.739 7.052 15.462 15.822 15.57m-889.576 0c9.152-.056 16.061-7.238 15.803-16.429-.24-8.711-7.139-15.362-15.992-15.419-9.009-.062-16.096 7.296-15.844 16.418.247 8.718 7.277 15.482 16.033 15.43M1718.07 722.58c-8.977-.034-16.269 7.278-16.125 16.159.143 8.6 7.142 15.54 15.816 15.689 8.902.148 16.2-7.255 16.028-16.262-.166-8.669-7.109-15.557-15.719-15.585m.009-89.576c-8.37-.085-16.26 7.882-16.135 16.296.12 8.318 7.46 15.541 15.814 15.553 9.023.017 16.164-7.15 16.032-16.08-.114-8.183-7.592-15.678-15.711-15.769m-45.839 342.378c8.91-.074 16.003-7.477 15.763-16.442-.229-8.407-7.522-15.469-15.906-15.406-8.418.063-15.74 7.215-15.934 15.554-.2 8.606 7.458 16.368 16.077 16.294m-88.399 179.153c8.06.045 14.322-6.33 14.582-14.858.283-9.206-6.056-16.649-14.462-16.98-8.515-.337-15.283 6.701-15.386 16.004-.108 9.43 6.013 15.776 15.266 15.834m-45.736 43.792c7.76-.034 14.35-6.936 14.54-15.21.205-9.08-6.536-16.604-14.913-16.639-8.069-.034-14.86 7.114-14.94 15.725-.098 9.142 6.579 16.17 15.313 16.124m-979.251-.008c8.349-.268 14.528-7.17 14.43-16.135-.087-8.775-6.674-15.694-14.964-15.706-8.071-.017-14.8 7.148-14.892 15.844-.098 9.158 6.766 16.283 15.426 15.997M1627.7 366.272c-8.69-.24-15.306 6.606-15.333 15.863-.027 9.19 6.617 16.16 15.22 15.977 8.184-.177 14.627-7.141 14.638-15.823.016-8.659-6.454-15.789-14.525-16.017m89.935 475.74c9.387.126 16.117-6.442 16.157-15.774.034-8.867-6.525-15.826-15.152-16.066-9.08-.252-16.429 6.557-16.69 15.47-.261 9.206 6.48 16.25 15.685 16.37M647.966 187.114c-8.14 0-14.92 6.718-14.962 14.827-.038 7.816 7.156 15.07 14.913 15.032 7.88-.038 14.945-7.135 14.945-15-.005-8.038-6.843-14.859-14.897-14.859m802.153 0c-8.255.06-15.068 6.981-14.91 15.148.154 7.726 6.907 14.505 14.652 14.706 8.04.212 15.243-6.844 15.205-14.891-.044-8.471-6.589-15.022-14.947-14.962m223.372 312.524c-8.406-.192-15.184 6.262-15.337 14.59-.147 8.676 5.992 15.13 14.528 15.262 8.673.138 15.156-5.97 15.325-14.442.164-8.422-6.237-15.223-14.516-15.41m-90.158-179.153c-8.647.163-14.796 6.458-14.757 15.11.044 8.375 6.614 14.767 15.156 14.746 8.397-.022 14.812-6.632 14.701-15.132-.116-8.641-6.509-14.882-15.1-14.724m-45.907-43.789c-8.19.222-14.516 6.603-14.632 14.763-.121 8.248 6.78 15.122 15.152 15.089 8.737-.033 14.814-6.343 14.704-15.256-.11-8.93-6.271-14.834-15.224-14.596m-43.102-43.793c-8.42-.243-15.173 6.257-15.322 14.757-.143 8.034 6.108 14.712 14.114 15.077 8.54.394 15.388-5.808 15.73-14.241.336-8.444-6.091-15.35-14.522-15.593m-889.705.002c-8.61-.277-15.158 5.945-15.401 14.62-.232 8.548 6.117 15.14 14.672 15.23 8.346.083 15.203-6.67 15.18-14.942-.022-8.05-6.42-14.653-14.451-14.908m-44.525 43.784c-8.669.006-14.828 6.42-14.672 15.266.161 8.784 6.571 14.855 15.406 14.584 8.14-.254 14.45-6.752 14.45-14.878 0-8.601-6.471-14.977-15.184-14.972m1067.008 742.484c8.722.123 15.214-6.301 15.124-15.009-.078-7.963-6.804-14.7-14.823-14.846-8.031-.145-14.751 6.346-15.024 14.522-.29 8.87 5.777 15.198 14.723 15.333m46.112-133.37c7.695-.15 14.684-7.188 14.795-14.893.117-8.067-7.145-15.11-15.423-14.96-8.356.155-14.44 6.37-14.434 14.748.005 8.735 6.522 15.266 15.062 15.105m.03-296.59c-8.566-.158-14.932 5.96-15.09 14.498-.156 8.72 5.772 15.08 14.31 15.35 7.983.255 15.247-6.546 15.539-14.537.275-7.71-6.91-15.164-14.759-15.311m-89.238 475.739c8.11-.217 14.33-6.588 14.427-14.775.102-8.437-6.612-15.19-15-15.076-8.558.114-15.057 6.782-14.852 15.242.204 8.517 6.884 14.843 15.425 14.609m43.295-609.11c-8.175.084-14.881 6.786-14.932 14.929-.062 8.317 6.408 14.872 14.73 14.929 7.263.045 15.111-7.704 15.128-14.935.017-8.086-6.898-15.002-14.926-14.923m30.851 325.248c-.056 8.44 6.454 15.1 14.787 15.14 7.507.045 14.623-6.735 15.053-14.335.436-7.635-6.85-15.332-14.685-15.52-8.384-.198-15.104 6.327-15.155 14.715m14.213-102.296c-8.243.28-14.185 6.466-14.213 14.808-.034 8.57 6.418 15.065 14.933 15.042 8.068-.017 15.093-7.246 14.922-15.358-.17-7.997-7.478-14.767-15.642-14.492M692.13 1240.119c8.386.288 14.381-5.404 14.523-13.787.13-8.08-5.289-13.766-13.392-14.059-8.495-.304-14.42 5.318-14.474 13.733-.054 8.112 5.365 13.836 13.343 14.113m713.062.009c8.184.125 14.154-5.872 14.089-14.153-.054-7.928-5.797-13.68-13.695-13.713-8.35-.033-14.331 5.904-14.17 14.076.157 7.804 6.014 13.67 13.776 13.79M559.474 1108.75c7.855-.114 14.017-7.028 13.807-15.492-.194-7.909-6.517-14.377-14.044-14.365-7.705.011-14.13 7.217-13.807 15.486.3 8.03 6.608 14.48 14.044 14.371m979.097.002c7.867.01 14.239-6.88 14.076-15.225-.162-7.926-6.512-14.628-13.891-14.634-7.884-.012-14.195 6.88-13.968 15.253.228 8.31 6.16 14.594 13.783 14.606m-889.596 87.585c8.323-.022 13.804-5.404 13.886-13.641.088-8.336-6.061-14.43-14.33-14.222-7.83.197-13.623 6.303-13.536 14.255.104 8.155 5.728 13.63 13.98 13.608m934.517-784.26c-7.948-.465-14.276 4.923-14.872 12.663-.601 7.882 4.822 14.457 12.472 15.119 8.186.705 14.855-4.989 15.326-13.095.45-7.778-5.228-14.233-12.926-14.687m-134.737 784.256c8.342.165 14.04-5.08 14.31-13.173.274-8.092-5.145-14.204-13.005-14.664-8.139-.483-14.732 5.629-14.852 13.77-.11 8.027 5.55 13.914 13.547 14.067m-844.702-45.79c7.873-.273 13.284-6.264 13.016-14.44-.256-7.992-6.164-13.583-14.168-13.414-7.638.164-13.846 6.576-13.687 14.151.175 8.128 6.524 13.993 14.84 13.703M1628.212 929.6c7.857.087 13.86-5.723 14.01-13.548.146-7.743-5.803-14.1-13.38-14.314-7.98-.22-14.55 6.155-14.484 14.057.059 7.71 6.1 13.722 13.854 13.805m-133.729 220.95c8.296.207 14.498-5.868 14.372-14.077-.115-7.799-6.202-13.803-13.966-13.786-7.836.016-13.856 5.982-13.9 13.78-.044 8.106 5.488 13.88 13.494 14.082m44.063-784.282c-7.473.006-13.484 5.9-13.754 13.477-.287 8.154 5.398 14.252 13.423 14.389 7.827.137 14.34-6.037 14.433-13.685.089-7.56-6.502-14.186-14.102-14.18m89.96 179.152c-7.59.06-14.138 6.62-14.149 14.18-.005 7.355 5.928 13.372 13.508 13.674 8.073.33 14.21-5.413 14.358-13.444.143-7.691-6.301-14.47-13.716-14.41M559.303 366.266c-7.748.033-14.032 6.48-13.882 14.248.144 7.533 6.079 13.464 13.61 13.617 7.893.154 14.216-5.936 14.255-13.743.044-7.862-6.184-14.155-13.983-14.122m176.975-177.161c-8.495.028-13.842 5.463-13.696 13.91.142 7.664 6.816 14.222 14.212 13.95 6.696-.25 13.908-8.198 13.647-15.044-.283-7.598-6.093-12.844-14.163-12.816m625.772 0c-8.383.005-14.592 6.7-14.426 15.547.116 6.373 6.904 12.375 13.946 12.32 7.704-.06 13.99-6.476 13.918-14.19-.083-7.566-6.092-13.688-13.438-13.677m43.347 43.794c-7.934.121-14.194 6.479-13.978 14.187.199 7.093 6.73 13.517 13.9 13.676 7.708.17 13.968-6.11 13.963-14.005 0-8.28-5.719-13.978-13.885-13.858m207.06 861.715c.845 7.638 5.275 12.094 11.994 12.044 6.036 4.2 11.2 1.49 15.14-2.932 3.529-3.96 7.175-8.806 2.184-14.464-.278-7.165-7.203-12.99-14.612-12.305-8.848.818-15.662 9-14.706 17.657m-920.64-861.715c-7.324.093-13.03 6.149-13.03 13.834 0 7.653 6.325 14.01 13.953 14.033 6.9.016 13.91-6.759 13.915-13.468.005-7.647-7.054-14.498-14.837-14.4m803.14 89.576c-7.437.039-13.756 6.175-13.962 13.569-.233 8.068 5.77 14.254 13.873 14.298 7.943.05 14.163-6.28 13.985-14.215-.167-7.483-6.498-13.697-13.896-13.652m-45.473-43.789c-7.403-.19-13.829 5.781-14.257 13.238-.444 7.736 5.854 14.524 13.574 14.625 7.576.1 13.846-5.67 14.252-13.116.427-7.746-5.838-14.546-13.569-14.747m-800.817-.002c-7.38.122-13.59 6.414-13.673 13.846-.089 7.844 6.264 14.119 14.183 14.019 7.459-.095 13.634-6.275 13.684-13.68.039-7.766-6.509-14.313-14.194-14.185m-45.223 43.792c-7.318-.095-13.864 6.106-14.22 13.48-.36 7.686 6.012 14.262 13.958 14.385 7.975.122 13.608-5.253 13.886-13.263.289-8.15-5.633-14.496-13.624-14.602m980.782 650.917c8.037.05 14.396-6.38 14.202-14.36-.182-7.65-6.523-13.683-14.19-13.504-7.844.185-13.708 6.151-13.673 13.935.028 7.739 6.057 13.884 13.661 13.929m57.999-324.697c-.063-7.943-6.167-13.877-14.112-13.697-7.968.175-13.946 6.34-13.751 14.17.2 7.865 6.424 13.849 14.226 13.691 8.02-.163 13.694-6.069 13.637-14.164m-13.738 101.753c7.944.016 13.67-5.752 13.738-13.843.068-7.978-5.617-13.864-13.544-14.022-7.808-.158-14.04 5.678-14.315 13.402-.28 8.17 5.845 14.446 14.12 14.463m-847.38 489.68c7.19.091 13.002-6.052 13.13-13.865.135-7.96-5.312-13.927-12.77-14-7.469-.069-13.023 5.723-13.103 13.65-.076 7.892 5.516 14.125 12.744 14.216m847.802-400.112c7.976-.212 13.433-6.006 13.314-14.121-.125-7.585-6.586-13.926-14.012-13.736-7.636.195-13.808 6.447-13.854 14.032-.05 8.215 6.093 14.054 14.552 13.825m-311.736 400.102c7.121-.29 12.45-6.157 12.53-13.798.092-8.045-5.479-14.082-12.966-14.06-7.54.023-13.047 6.032-12.907 14.094.145 8.055 5.969 14.064 13.343 13.764m267.815-738.489c-8.27-.195-14.277 5.47-14.421 13.593-.138 8.025 5.852 14.19 13.857 14.27 7.43.069 13.633-5.831 13.99-13.31.39-8.222-5.272-14.363-13.426-14.553M826.773 189.11c-7.344.194-12.795 6.063-12.623 13.579.173 7.283 5.387 12.277 12.85 12.293 7.792.017 13.12-5.275 13.022-12.952-.091-7.51-5.84-13.115-13.249-12.92m445.273-.005c-7.617.044-14.22 6.491-13.996 13.663.23 7.397 5.73 12.198 14.002 12.214 8.311.017 13.709-4.735 13.858-12.22.155-7.467-6.172-13.7-13.864-13.657M557.795 1017.18c7.75.19 13.44-5.184 13.5-12.738.06-7.012-5.485-12.824-12.517-13.122-7.344-.324-13.31 5.455-13.36 12.938-.048 7.462 5.005 12.738 12.377 12.922m979.673 0c7.565.189 12.788-4.579 13.172-12.025.39-7.548-5.05-13.615-12.404-13.842-6.732-.211-13.005 5.536-13.427 12.311-.465 7.376 5.125 13.366 12.659 13.556m.649-561.336c-6.777-.114-13.026 5.804-13.322 12.617-.319 7.411 5.52 13.291 13.168 13.259 7.451-.038 12.658-5.261 12.697-12.743.032-7.275-5.449-13.02-12.543-13.133M737.6 1194.346c7.152-.027 12.69-5.543 12.844-12.794.153-7.625-5.61-13.32-13.21-13.076-7.135.239-12.778 6.075-12.663 13.093.12 6.93 6.096 12.799 13.03 12.777m-133.194-133.373c7.161-.169 12.67-5.827 12.67-13.029.006-6.901-5.926-12.761-13-12.843-7.134-.082-12.753 5.49-12.874 12.773-.137 7.839 5.35 13.284 13.204 13.1m801.972 89.577c7.082-.154 13.079-6.29 12.898-13.206-.198-7.41-5.739-12.729-13.194-12.668-7.522.065-12.777 5.44-12.679 12.97.1 7.36 5.821 13.052 12.975 12.904M558.217 455.842c-7.205.006-13.092 6.335-12.788 13.74.3 7.22 5.932 12.353 13.305 12.13 7.171-.217 12.721-5.986 12.558-13.054-.152-6.79-6.306-12.821-13.075-12.816m1025.296 427.973c7.064.083 12.74-5.528 12.925-12.769.196-7.388-5.04-12.933-12.359-13.103-7.379-.17-13.19 5.051-13.5 12.133-.327 7.393 5.572 13.657 12.934 13.74m-222.904 310.53c6.874-.038 12.846-6.023 12.89-12.91.037-7.045-5.64-12.823-12.732-12.965-7.304-.136-12.917 5.148-13.14 12.378-.228 7.463 5.618 13.54 12.982 13.497m223.408-603.14c-7.207-.185-13.256 5.398-13.447 12.416-.191 6.757 5.788 13.118 12.628 13.444 6.847.326 12.967-5.49 13.234-12.607.284-7.18-5.231-13.068-12.415-13.253M781.21 234.889c-6.648.065-12.89 6.482-12.847 13.184.06 6.871 6.16 12.768 13.154 12.692 7.141-.077 12.837-5.881 12.722-12.971-.115-6.899-6.249-12.971-13.029-12.905m-87.636 915.66c7.047.202 12.924-5.572 13.078-12.842.153-7.478-5.071-12.863-12.628-13.028-7.441-.148-13.033 5.144-13.242 12.535-.197 6.941 5.735 13.132 12.792 13.334M1316.45 234.89c-6.706.088-12.492 6.331-12.62 13.62-.117 6.587 5.736 12.19 12.792 12.256 7.286.071 13.166-5.74 13.083-12.919-.084-7.108-6.165-13.05-13.255-12.957m178.087 826.076c7.206-.294 12.512-6.012 12.325-13.282-.176-7.025-6.143-12.722-13.161-12.58-7.195.147-12.793 5.87-12.71 12.988.082 7.689 5.867 13.184 13.546 12.874m88.764-266.73c7.215.2 13.002-5.447 13.14-12.814.121-6.635-5.529-12.67-12.203-13.042-6.752-.372-13.388 5.73-13.663 12.554-.275 7.072 5.485 13.102 12.726 13.302m-935.18 312.523c7.134-.16 12.87-6.111 12.749-13.233-.116-7.188-5.951-12.755-13.228-12.64-7.305.121-12.794 5.82-12.645 13.123.16 7.293 5.934 12.904 13.124 12.75m802.253-.001c7.42-.178 12.853-5.934 12.697-13.455-.151-7.072-5.59-12.363-12.77-12.418-7.525-.061-13.121 5.463-13.104 12.934.017 7.31 5.926 13.116 13.177 12.939M916.251 189.111c-7.171.212-12.5 5.73-12.529 12.975-.028 7.58 5.691 13.092 13.365 12.891 7.28-.19 12.535-5.607 12.512-12.874-.028-7.608-5.792-13.215-13.348-12.992m267.145-.005c-6.937-.095-12.649 5.467-12.925 12.593-.294 7.644 5.187 13.306 12.846 13.283 7.309-.022 12.823-5.255 13.015-12.376a13.092 13.092 0 0 0-12.936-13.5m-446.237 89.577c-6.9.116-12.498 5.792-12.588 12.747-.09 6.833 5.546 12.841 12.311 13.118 6.952.294 13.468-5.892 13.564-12.869.102-7.033-6.121-13.118-13.287-12.996M560.312 927.609c7.18.006 12.866-5.538 12.972-12.657.123-7.445-5.864-13.377-13.318-13.217-7.013.142-12.71 6.097-12.554 13.13.15 7.252 5.708 12.738 12.9 12.744m800.37-648.928c-7.104-.039-13.23 6.121-13.058 13.137.151 6.447 6.4 12.651 12.813 12.74 6.707.082 13.247-6.591 13.057-13.336-.19-6.79-6.032-12.502-12.812-12.541m222.957 427.974c7.338-.006 13.055-5.987 12.795-13.393-.237-6.757-6.331-12.602-13.016-12.483-7.205.119-13.227 6.479-12.834 13.558.37 6.903 6.115 12.324 13.055 12.318M648.632 368.269c-7.852-.307-13.615 5.15-13.638 12.915-.023 7.223 5.53 12.829 12.822 12.948 7.447.12 12.868-5.098 13.05-12.561.189-7.673-4.724-13.011-12.234-13.302m-44.252 43.785c-7.265-.19-13.268 5.812-13.178 13.16.096 7.214 5.452 12.622 12.598 12.712 7.54.09 13.34-5.587 13.278-13.003-.056-6.912-5.755-12.684-12.698-12.87m622.889 828.076c7.494-.063 12.78-5.344 12.86-12.85.074-7.927-5.4-13.242-13.429-13.02-7.443.205-12.598 5.656-12.445 13.174.148 7.398 5.64 12.759 13.014 12.696m266.98-828.078c-7.686-.09-13.265 5.387-13.26 13.013 0 7.091 5.557 12.749 12.624 12.861 7.493.124 13.3-5.607 13.254-13.075-.046-7.181-5.5-12.715-12.618-12.8M693.95 324.47c-7.048-.192-12.934 5.406-13.164 12.517-.242 7.433 4.817 12.997 12.124 13.34 7.6.35 13.693-5.304 13.745-12.737.04-6.904-5.8-12.934-12.705-13.12m756.521 43.789c-7.549-.086-12.996 5.019-13.265 12.433-.274 7.625 5.465 13.517 13.1 13.443 7.497-.069 12.722-5.339 12.768-12.89.046-7.608-5.094-12.906-12.603-12.986m89.334 559.35c7.605-.034 12.952-5.429 12.844-12.972-.104-7.462-5.737-13.007-13.096-12.903-7.547.104-12.843 5.55-12.78 13.145.058 7.773 5.175 12.765 13.033 12.73m-979.884-382.18c-6.577.3-12.745 6.97-12.507 13.524.25 6.829 6.56 12.626 13.432 12.333 7.093-.305 12.654-6.237 12.433-13.27-.221-6.682-6.798-12.885-13.358-12.586m444.065-354.33c-7.183.154-12.797 6.002-12.678 13.202.126 7.2 5.94 12.79 13.185 12.67 7.149-.12 12.803-5.997 12.69-13.191-.103-7.006-6.174-12.836-13.197-12.682m402.68 133.37c-6.943-.18-13.014 5.529-13.255 12.472-.252 7.41 5.705 13.485 13.135 13.4 7.173-.073 12.717-5.663 12.734-12.837.023-7.123-5.527-12.849-12.613-13.035m-313.12-133.37c-6.728.125-12.797 6.482-12.662 13.25.135 6.798 6.424 12.776 13.26 12.622 7.1-.154 12.753-6.076 12.612-13.205-.135-6.958-6.227-12.793-13.21-12.668m446.14 354.323c-6.93-.13-12.845 5.774-12.914 12.903-.076 7.423 5.222 12.847 12.655 12.971 6.983.113 13.18-5.841 13.221-12.705.046-6.745-6.146-13.039-12.961-13.169M870.13 1240.125c6.74.205 13.564-6.377 13.683-13.216.13-7.347-5.243-12.651-12.81-12.657-7.55 0-12.879 5.082-13.06 12.48-.193 7.45 5.016 13.17 12.187 13.393m268.097-1.994c6.871.236 12.11-4.738 12.32-11.69.203-6.952-4.78-12.135-11.71-12.189-6.749-.048-12.256 5.382-12.17 12.012.075 6.336 5.255 11.653 11.56 11.867m-311.87-43.785c6.944-.021 11.786-5.112 11.673-12.279-.108-6.854-5.47-11.886-12.362-11.596-6.412.264-11.528 5.543-11.523 11.876.022 6.79 5.337 12.015 12.212 12m445.006-.007c6.728.21 12.327-5.01 12.552-11.692.215-6.548-5.255-12.096-12.02-12.187-6.603-.097-11.579 4.633-11.848 11.256-.295 7.087 4.482 12.408 11.316 12.623m-311.607 43.794c6.815-.198 11.878-5.619 11.636-12.464-.235-6.696-5.871-11.769-12.648-11.399-6.467.354-11.304 5.517-11.23 11.988.076 6.744 5.567 12.068 12.242 11.875M1494.7 971.4c6.586.108 12.268-5.608 12.166-12.247-.098-6.516-5.195-11.545-11.782-11.637-6.906-.092-12.258 5.246-12.1 12.074.151 6.473 5.346 11.708 11.716 11.81m-891.318 0c6.84-.113 11.962-5.612 11.696-12.547-.249-6.476-5.485-11.402-12.043-11.338-6.548.07-11.735 5.159-11.832 11.619-.103 6.616 5.62 12.38 12.179 12.266m622.704-736.511c-6.436.054-11.64 5.164-11.829 11.614-.188 6.304 4.93 11.884 11.243 12.251 6.722.4 12.496-4.943 12.636-11.673a11.885 11.885 0 0 0-12.05-12.192m312.816 400.107c-6.514-.125-11.95 5.028-12.125 11.506-.186 6.914 5.211 12.476 12.015 12.378 6.432-.087 11.846-5.491 11.868-11.855.021-6.407-5.354-11.909-11.758-12.029m-490.728 603.12c6.37.405 12.041-4.41 12.736-10.822.723-6.651-4.448-12.658-11.2-13.02-6.8-.37-12.073 4.116-12.578 10.69-.538 7.025 4.236 12.718 11.042 13.151M870.614 234.9c-6.697-.303-12.533 5.07-12.673 11.659-.134 6.54 5.583 12.232 12.264 12.216 6.423-.016 11.505-5.167 11.619-11.789.118-6.686-4.609-11.783-11.21-12.086m668.491 603.128c6.602-.153 11.651-5.441 11.553-12.094-.092-6.504-5.556-11.864-12.021-11.787-6.678.082-11.81 5.211-11.864 11.848-.049 7.271 5.006 12.209 12.332 12.033M559.125 636.99c-6.78.18-11.904 5.547-11.711 12.25.188 6.473 5.913 11.829 12.434 11.626 6.73-.213 11.578-5.443 11.445-12.354-.132-6.933-5.173-11.708-12.169-11.522m.22 201.043c7.438.055 12.137-4.798 11.946-12.352-.17-7.04-4.939-11.622-11.984-11.534-6.647.089-11.962 5.45-11.897 11.987.077 6.664 5.272 11.849 11.935 11.899m889.696 177.16c6.617.105 11.903-5.072 12.04-11.787.144-6.483-5.209-11.98-11.77-12.097-6.502-.116-12.08 5.332-12.113 11.815-.033 6.576 5.26 11.964 11.843 12.069m-133.496 133.367c6.922.149 12-4.71 12.167-11.64.162-6.76-4.966-12.137-11.676-12.242-6.804-.11-12.122 5.007-12.206 11.734-.078 6.914 4.821 11.998 11.715 12.148m222.899-423.986c-6.638.138-11.917 5.645-11.661 12.18.255 6.623 5.783 11.86 12.355 11.7 6.643-.16 11.727-5.613 11.516-12.363-.21-6.922-5.24-11.667-12.21-11.517m-889.553 290.62c6.77-.01 11.943-5.118 11.981-11.824.039-6.767-5.013-11.973-11.706-12.061-6.439-.089-12.08 5.371-12.179 11.785-.1 6.36 5.564 12.111 11.904 12.1m-45.505-511.576c-6.881-.106-12.025 4.811-12.18 11.628-.156 6.7 5.088 12.19 11.697 12.256 6.653.067 12.113-5.211 12.185-11.784.078-6.739-5.01-12-11.702-12.1m-44.4 220.957c-6.892.171-11.782 5.358-11.57 12.275.212 6.806 5.638 11.914 12.308 11.593 6.982-.333 11.704-5.38 11.57-12.353-.134-6.84-5.32-11.687-12.307-11.515m935.677-220.956c-6.678.15-11.823 5.488-11.68 12.116.143 6.763 5.403 11.877 12.086 11.766 6.524-.111 11.927-5.694 11.796-12.183-.138-6.456-5.755-11.844-12.202-11.7m-712.397 646.936c6.961 0 11.923-4.94 11.974-11.919.05-6.884-5.024-11.963-11.935-11.968-6.91-.006-11.963 5.04-11.952 11.93.012 6.944 5.002 11.957 11.913 11.957m43.897-869.882c-7.109-.045-12.023 4.875-12.017 12.03.006 6.836 4.543 11.576 11.338 11.846 6.907.27 12.376-4.785 12.545-11.604.174-6.937-4.953-12.233-11.866-12.272m-87.43 824.097c7.133-.078 11.803-4.995 11.713-12.324-.095-7.144-5.063-11.795-12.351-11.553-6.61.215-11.472 5.199-11.534 11.818-.067 6.861 5.26 12.138 12.173 12.06m532.888-824.096c-6.424.129-11.364 5.097-11.58 11.645-.217 6.672 5.173 12.24 11.841 12.24 6.796 0 12.197-5.412 12.036-12.055-.161-6.856-5.474-11.964-12.297-11.83m-89.98 913.655c6.328.367 12.498-5.285 12.7-11.643.19-6.28-5.756-12.249-12.173-12.227-6.205.028-11.636 5.452-11.709 11.683-.073 6.33 4.967 11.82 11.182 12.187m223.365-133.353c7.192.092 12.3-4.907 12.284-12.026-.011-6.49-5.154-11.696-11.71-11.855-6.943-.166-12.244 5.124-12.176 12.152.073 6.919 4.749 11.65 11.602 11.73m-43.439 43.793c6.974-.022 12.113-5.412 11.925-12.494-.176-6.673-5.213-11.432-12.045-11.392-6.99.04-11.697 4.634-11.834 11.54-.142 7.337 4.73 12.375 11.954 12.346m-668.85-43.792c7.017.005 12.21-5.378 11.936-12.38-.263-6.608-5.405-11.541-11.986-11.507-6.71.034-11.706 4.882-11.885 11.542-.196 7.092 4.874 12.339 11.935 12.345m222.11 133.343c5.376.453 12.102-5.31 12.715-10.907.68-6.194-3.976-11.969-10.356-12.851-6.453-.894-12.777 4.105-13.413 10.606-.63 6.45 4.54 12.6 11.054 13.152m45.142-959.429c-6.828-.176-12.41 5.181-12.455 11.958-.05 6.793 5.415 12.054 12.383 11.923 6.606-.126 11.531-5.204 11.504-11.86-.034-6.646-4.987-11.855-11.432-12.02m178.878-.003c-6.95-.125-12.237 5.144-12.18 12.147.044 6.66 4.99 11.628 11.68 11.736 6.984.114 12.3-5.144 12.204-12.072-.09-6.444-5.293-11.69-11.704-11.81m310.428 222.943c-6.35-.106-11.84 5.066-12.071 11.376-.25 6.597 5.32 12.493 11.805 12.51 6.746.022 12.212-5.52 12.071-12.207-.13-6.288-5.478-11.572-11.805-11.679m-801.18.027c-6.324.464-11.382 6.113-11.1 12.396.31 6.791 5.93 11.847 12.717 11.44 6.29-.373 11.382-5.955 11.151-12.232-.236-6.582-6.29-12.079-12.768-11.604m401.689-222.956c-7.002-.35-12.62 4.931-12.694 11.927-.068 6.63 5.008 11.79 11.754 11.94 6.79.154 11.975-4.72 12.129-11.4.16-6.91-4.53-12.135-11.19-12.467M605.489 883.799c6.44-.327 11.759-5.974 11.587-12.317-.172-6.468-5.576-11.576-12.228-11.553-6.915.018-11.666 4.803-11.655 11.726.011 7.238 5.341 12.5 12.296 12.144m710.604-559.333c-6.628-.114-12.01 4.867-12.257 11.348-.245 6.476 5.737 12.644 12.16 12.536 6.217-.103 11.668-5.706 11.72-12.045.051-6.71-4.869-11.72-11.623-11.839m-534.081 0c-6.76.138-11.854 5.43-11.652 12.095.196 6.426 5.924 11.957 12.222 11.786 6.316-.165 11.756-5.919 11.658-12.339-.098-6.614-5.469-11.678-12.228-11.541m579.53 45.78c-6.988-.005-11.895 4.441-11.93 10.815-.034 6.14 5.283 11.076 11.94 11.082 6.699 0 12.01-4.915 11.947-11.07-.052-6.295-5.057-10.821-11.958-10.827m-622.488.005c-6.733-.165-12.132 4.342-12.477 10.415-.333 5.849 5.071 11.182 11.614 11.464 6.531.293 12.062-4.518 12.252-10.66.207-6.393-4.53-11.049-11.39-11.22m755.906 513.565c6.716-.023 11.805-5.156 11.908-12.04.104-6.88-4.835-11.835-11.816-11.847-6.813-.005-12.063 5.117-12.069 11.783-.011 6.494 5.56 12.127 11.977 12.104m-89.348-469.77c-6.263-.215-12.021 5.24-12.2 11.572-.195 6.66 4.78 12.041 11.366 12.301 6.172.249 12.286-5.365 12.51-11.481.213-5.863-5.746-12.188-11.676-12.392m-712.568-.004c-5.98-.119-12.135 5.792-12.261 11.777-.133 6.166 5.537 11.981 11.8 12.106 6.384.13 11.967-5.255 12.083-11.653.11-6.336-5.376-12.106-11.622-12.23m401.191 778.307c6.304.215 12.424-5.057 12.528-10.794.098-6.124-5.187-11.047-11.923-11.095-6.817-.054-12.02 4.72-11.963 10.971.058 5.722 5.238 10.71 11.358 10.918M914.611 280.672c-6.307.09-10.99 4.864-10.887 11.14.109 6.73 4.226 10.008 10.511 10.7 6.002.664 11.317-4.635 11.383-10.726.065-6.224-4.858-11.199-11.007-11.114M615.04 603.732c-.665-6.193-4.015-10.346-10.752-10.535-6.438-.178-11.053 4.385-11.096 10.838-.037 6.242 4.77 11.07 11.015 11.053 5.912-.021 11.46-5.464 10.833-11.356m567.904-323.042c-6.537.406-10.213 4.057-10.483 10.571-.27 6.312 4.55 11.253 10.726 11.306 5.895.054 11.25-5.293 11.158-11.135-.086-5.96-5.355-11.115-11.4-10.742m-178.132 911.613c6.197-.707 10.278-4.066 10.38-10.86.101-6.493-4.478-11.068-10.905-10.982-6.314.08-11.172 4.993-10.985 11.111.172 5.83 5.785 11.385 11.51 10.731M1493.82 593.2c-6.712.226-10.235 4.16-10.802 10.497-.535 6.014 4.696 11.22 10.834 11.387 6.258.172 11.03-4.608 11.024-11.047-.01-6.618-4.442-11.058-11.056-10.837M871.312 1148.55c5.83-.26 10.573-5.269 10.513-11.085-.07-6.456-4.955-11.059-11.437-10.788-6.193.26-10.486 4.744-10.459 10.934.033 6.412 5.032 11.22 11.383 10.94m355.463.006c6.608.18 11.303-4.347 11.363-10.95.06-6.57-4.585-11.064-11.292-10.939-6.181.12-10.554 4.604-10.603 10.88-.05 6.09 4.498 10.85 10.532 11.009m267.057-356.31c5.746.108 10.88-4.845 11.04-10.647.165-6.098-4.368-11.035-10.318-11.24-6.099-.211-11.233 4.305-11.558 10.15-.337 6.14 4.726 11.624 10.836 11.737m-889.857.001c5.583.044 10.862-5.04 11.106-10.69.244-5.812-5.377-11.333-11.415-11.203-5.746.118-10.602 5.24-10.471 11.052.124 5.768 5.121 10.793 10.78 10.841m889.852-89.576c6.377.083 10.791-4.163 11.04-10.612.253-6.792-4.267-11.387-11.106-11.282-6.267.1-10.836 4.733-10.78 10.944.055 6.2 4.684 10.867 10.846 10.95m-889.994-.001c5.997.105 10.913-4.5 11.239-10.524.331-5.964-4.335-11.09-10.342-11.356-6.801-.305-11.581 4.189-11.538 10.83.044 6.224 4.59 10.939 10.641 11.05m44.426 222.94c6.38-.206 10.72-4.846 10.62-11.334-.089-6.294-4.83-10.718-11.3-10.551-6.425.155-10.799 4.806-10.587 11.256.206 6.455 4.853 10.834 11.267 10.628m802.12.004c6.396-.139 10.732-4.608 10.705-11.018-.023-6.461-4.337-10.813-10.778-10.874-6.559-.061-10.94 4.084-11.113 10.529-.19 6.794 4.454 11.508 11.185 11.363m-623.21 179.154c6.162.084 10.904-4.771 10.865-11.109-.045-6.193-5.152-11.354-11.19-10.736-6.246.641-10.23 4.27-10.685 10.641-.41 5.775 5.13 11.126 11.01 11.204m445.928-.002c6.098-.144 11.013-5.302 10.82-11.362-.185-5.943-5.64-11.15-11.643-10.471-6.268.707-10.185 4.2-10.247 10.844-.05 6.244 4.943 11.129 11.07 10.99m-625.018-557.34c-6.166.39-10.515 3.568-11.059 10.17-.492 6.078 4.332 11.387 10.397 11.693 6.014.307 11.308-4.6 11.461-10.628.164-6.089-4.774-11.62-10.799-11.235m801.55.038c-6.347.717-10.497 4.283-10.44 10.994.057 6.677 4.133 10.265 10.559 10.809 6.216.527 11.365-4.743 11.337-10.933-.04-6.082-5.467-11.548-11.456-10.87m-355.96-266.795c-5.683-.005-11.345 5.794-10.751 11.593.66 6.4 4.302 10.09 10.896 10.304 6.51-.4 10.246-4.084 10.918-10.434.588-5.478-5.523-11.457-11.062-11.463M694.367 971.348c6.672-.666 9.548-5.034 10.297-11.205-1.044-6.45-4.442-10.386-11.063-10.63-6.23-.233-11.058 4.97-10.825 11.301.233 6.37 5.333 11.154 11.591 10.534m701.079-10.62c.685 6.259 4.19 10.42 10.943 10.666 6.41.233 11.063-4.726 10.898-12.556-.52-5.33-3.985-9.099-10.692-9.327-6.171-.21-11.8 5.256-11.149 11.218M1004.21 280.672c-5.925.045-11.265 5.552-10.894 11.548.422 6.738 4.625 9.736 10.68 10.348 6.932-.343 10.68-3.891 11.174-10.404.44-5.9-5.17-11.537-10.96-11.492m233.905 56.422c-.456-6.637-4.666-10.098-10.94-10.61-6.057-.493-11.31 5.144-10.91 11.32.427 6.57 4.208 10.041 9.992 10.547 7.078-.08 12.28-5.182 11.858-11.257m-367.424-10.602c-6.418.546-10.328 4.3-10.744 10.842-.37 5.991 5.175 11.167 12.215 11.014 5.46-.832 9.519-3.98 9.661-10.769.137-6.395-4.93-11.617-11.132-11.087m78.834 811.69c.376 6.746 4.208 10.224 10.85 10.378 6.26.148 11.58-5.237 10.98-11.317-.632-6.478-4.629-9.922-10.325-10.576-7.166.09-11.87 5.02-11.505 11.516m187.948 10.378c6.475.12 11.24-4.746 11.086-11.174-.137-6.183-5.543-11.334-11.703-10.661-6.543.719-10.434 4.746-10.177 11.265.257 6.383 3.926 10.444 10.794 10.57m-400.66-133.367c6.673-.502 10.707-3.967 11.563-10.442.77-5.8-4.086-11.001-10.12-11.418-6.799-.48-11.666 3.842-11.695 10.482-.035 6.857 3.914 10.208 10.253 11.378m579.907 45.779c6.827-.196 10.858-4.057 10.991-10.7.122-6.586-3.613-10.574-10.307-11.192-6.994.093-10.956 3.498-11.542 10.25-.568 6.586 4.345 11.827 10.858 11.642m44.139-45.812c6.68-.552 10.073-4.659 10.648-11.535-.725-6.284-3.956-10.34-10.936-10.328-6.887.006-10.607 3.791-10.946 10.495-.328 6.457 5.025 11.88 11.234 11.368m-577.09 45.778c6.741-.55 10.233-4.484 10.47-11.185-.647-6.81-4.122-10.78-11.03-10.67-6.788.104-10.622 3.87-10.859 10.705-.23 6.602 4.95 11.683 11.419 11.15m655.456-234.617c.546 6.063 3.88 9.608 10.503 9.72 5.99-.545 9.447-4.197 9.363-10.28-.096-6.256-3.993-9.56-10.196-9.625-5.636-.064-10.174 4.593-9.67 10.185m-789.342 9.703c5.878.348 11.471-4.562 10.954-9.883-.575-5.914-3.984-9.743-11.065-10.005-6.674.411-10.769 3.69-10.798 9.93-.029 6.305 4.27 9.568 10.909 9.958m800.099-199.04c-5.887.037-11.263 4.907-10.763 10.26.534 5.725 4.296 9.147 10.583 9.62 5.759.43 11.198-4.542 11.28-9.842.081-5.316-5.179-10.075-11.1-10.038m-43.335-133.367c-6.886-.108-10.992 3.561-11.242 9.643-.25 6.12 3.612 10.082 10.51 10.255 6.821.173 10.508-3.323 11.375-10.092-.762-5.498-3.553-9.692-10.643-9.806m-713.414.01c-6.897.244-10.628 4.091-10.46 10.28.173 6.238 4.152 9.694 11.095 9.612 7.162-.087 9.894-4.222 10.795-10.487-1.34-5.597-4.401-9.661-11.43-9.406m-42.776 133.398c-5.992-.525-11.328 4.15-11.48 9.593-.15 5.417 4.936 10.224 10.865 10.272 5.794.048 11.346-4.839 11.015-10.118-.36-5.831-4.123-9.195-10.4-9.747m621.685-266.777c-5.366-.058-10.268 5.14-10.113 11.048.17 6.481 3.58 10.12 9.335 10.792 5.478.644 10.37-4.415 10.561-10.41.187-5.837-4.55-11.372-9.783-11.43m-446.045.022c-6.258.445-9.988 3.896-9.961 10.227.022 6.013 3.654 9.163 9.57 9.623 5.893.455 10.297-3.843 10.335-9.66.038-5.77-4.393-10.587-9.944-10.19m223.177 776.3c6.568-.111 9.776-4.082 9.711-10.071-.065-6.121-3.781-9.482-10.311-9.832-5.995.77-9.841 3.992-9.581 10.24.249 6.016 3.678 9.77 10.181 9.663M648.803 726.56c-5.408 0-10.206 4.774-9.804 10.272.417 5.734 3.593 9.283 9.542 9.62 5.365.302 10.27-4.455 10.34-9.77.074-5.38-4.643-10.121-10.078-10.121m133.339-310.505c-5.798.425-9.608 3.384-9.793 9.625-.174 5.87 4.229 10.62 9.995 10.233 5.874-.392 9.411-3.648 9.902-9.108.158-6.3-4.398-11.17-10.104-10.75m666.35 330.39c5.37.365 10.66-4.066 10.6-9.414-.053-5.714-3.096-9.489-8.856-10.375-5.295-.816-10.585 3.662-11.018 8.973-.438 5.424 3.867 10.45 9.274 10.815m-132.716-330.39c-5.823-.4-10.097 4.285-9.954 10.293.143 6.316 4.126 9.142 9.9 9.562 5.888.42 10.178-4.301 9.997-10.288-.297-6.192-4.098-9.164-9.943-9.568m-579.545 43.783c-6.136.313-9.116 3.913-9.67 8.775-.076 6.513 4.74 11.58 10.256 11.084 5.835-.53 9.412-3.886 9.642-9.897.22-5.758-4.394-10.259-10.228-9.962m626.07.045c-5.878-.61-10.509 3.607-10.694 9.42-.18 5.644 4.413 10.786 9.899 10.407 5.779-.4 9.381-3.59 10.002-9.527-.25-6.023-3.178-9.667-9.208-10.3M959.421 326.455c-5.593.353-9.42 3.197-9.89 9.432-.422 5.627 4.548 10.785 10.153 10.459 6.053-.354 9.705-4.031 9.727-9.99.027-5.936-3.368-9.625-9.99-9.901m-43.343 776.307c6.284-.368 8.811-4.482 9.54-10.225-.882-5.99-3.76-9.724-10.071-9.662-6.29.05-9.43 3.75-9.815 9.745-.372 5.794 4.59 10.483 10.346 10.142m221.94-776.282c-6.116.449-9.147 4.084-9.36 9.224.197 6.49 4.647 11.094 10.002 10.623 5.765-.498 9.591-3.696 9.892-9.887.274-5.577-4.795-10.38-10.534-9.96m44.7 776.28c6.313-.32 9.79-4.246 9.633-10.324-.159-6.235-4.105-9.4-10.948-9.562-5.867.549-9.249 4.028-8.933 10.33.305 6.19 3.778 9.88 10.248 9.556m222.548-220.934c5.987-.67 9.906-3.863 10.03-9.989.137-6.143-3.454-9.85-9.82-9.916-6.275-.062-10.041 3.288-10.081 9.598-.034 6.165 3.523 9.532 9.871 10.307m-712.485-1.991c6.221-.028 9.859-3.795 9.893-9.99.033-6.311-3.796-9.434-9.74-9.916-6.621.297-10.282 3.79-10.163 9.922.113 5.987 3.733 10.018 10.01 9.984m356.293-553.38c-6.488 0-9.93 3.83-9.992 10.019-.068 5.938 3.814 9.66 9.422 9.876 6.043.228 9.829-3.357 10.483-9.7-.463-6.314-3.351-10.195-9.913-10.195m-44.148 776.323c6.386.098 9.636-3.809 10.268-10.035-.558-6.088-3.671-9.793-9.658-9.868-6.34-.086-10.36 3.734-10.245 10 .097 5.633 3.603 9.81 9.635 9.903m400.676-509.585c-6.513-.057-9.639 3.584-10.207 9.828.494 6.312 4.023 10.226 10.144 10.072 6.076-.147 9.969-4.243 9.753-10.453-.193-5.692-3.552-9.39-9.69-9.447m-711.934-.001c-7.21.146-10.853 3.751-10.9 9.823-.046 6.071 3.846 10.166 10.096 10.082 5.679-.074 9.547-3.605 9.796-9.525.266-6.32-3.285-9.653-8.992-10.38m400.755 509.578c6.454.242 10.3-3.9 10.347-9.953.052-6.093-3.76-10.143-10.267-9.935-6.034.19-9 4.01-9.638 10.027.679 5.632 3.575 9.63 9.558 9.86m-222.68-43.782c7.055-.453 10.297-4.685 10.072-10.575-.214-5.618-4.184-9.584-10.164-9.318-5.634.255-9.725 3.48-9.731 9.664 0 6.46 3.762 9.612 9.823 10.23m355.782-.01c6.443.212 10.101-3.276 10.614-9.725-.157-6.586-4.043-10.24-10.235-10.17-5.756.068-9.694 3.699-9.67 9.798.023 5.853 3.052 9.897 9.291 10.097m-489.689-135.35c5.227-.08 8.488-3.152 8.626-8.778.138-5.657-3.134-8.943-8.78-9.13-5.757-.187-9.072 3.125-9.13 8.724-.053 5.476 2.852 8.992 9.284 9.184m445.19-551.387c-5.666.112-8.72 3.606-8.58 9.264.132 5.729 3.43 8.867 9.122 8.636 5.596-.225 8.554-3.487 8.788-9.334-.601-5.525-3.793-8.674-9.33-8.566M827.072 1013.2c5.88.128 8.85-3.548 8.967-8.906.112-5.55-3.305-8.622-9.1-9.006-5.343.448-8.84 3.274-8.813 8.958.027 5.604 3.29 8.83 8.946 8.954m-45.897-43.79c5.856-.216 8.967-3.773 9.08-9.116.103-5.068-2.922-8.505-8.41-8.781-5.862-.287-9.346 2.945-9.497 8.467-.146 5.397 3.036 8.91 8.827 9.43m133.086-597.159c-5.73.251-8.694 3.754-8.544 9.327.16 5.823 3.961 8.212 9.509 8.574 5.52-.698 8.667-3.749 8.383-9.438-.284-5.684-3.666-8.713-9.348-8.463m445.133 551.36c8.106.278 11.778-3.104 12.092-8.349.307-5.164-2.78-9.146-9.104-9.52-6.667-.391-10.59 3.12-10.775 8.808-.174 5.266 3.302 8.82 7.787 9.06m-665.78-151.264c-5.206.107-8.649 2.955-8.848 8.478-.204 5.866 3.172 9.269 8.731 9.43 5.675.16 8.687-3.612 9.167-7.405.205-7.682-3.354-10.62-9.05-10.503m623.208 197.064c5.745-.487 8.987-3.855 8.9-9.345-.093-5.625-3.607-8.716-9.46-8.565-5.62.146-8.415 3.563-8.453 8.706-.044 5.577 3.144 8.847 9.013 9.204M1360.82 549.4c-5.664-.05-9.234 3.507-9.218 9.09.021 5.699 3.935 9.032 9.449 8.814 5.164-.212 8.09-3.68 8.466-9.058-.698-5.182-3.328-8.803-8.697-8.846m42.866 222.944c-4.374 1.066-8.507 2.905-8.283 8.715.213 5.75 3.859 9.286 9.358 9.199 5.55-.087 8.797-3.558 8.534-9.586-.246-5.87-3.797-7.795-9.61-8.328M737.364 549.4c-5.229.049-8.435 3.195-8.812 8.676-.021 5.579 3.163 8.899 8.283 9.214 5.513.332 9.527-2.786 9.63-8.66.099-5.725-3.38-9.284-9.1-9.23m667.603 133.39c-5.832-.319-9.426 2.928-9.569 8.702-.136 5.791 3.414 9.186 9.159 9.191 5.438.011 8.282-3.35 8.753-8.873-.23-5.292-2.872-8.725-8.343-9.02m-134.25 330.414c5.697.032 9.208-3.303 9.224-8.982.006-5.74-3.56-8.645-9.098-8.933-5.665.25-8.716 3.128-8.815 8.546-.098 5.69 2.81 9.336 8.689 9.369M694.374 682.795c-5.721-.35-8.927 2.683-9.615 8.312.238 5.814 2.977 9.465 8.737 9.574 5.646.104 9.106-3.219 9.176-8.924.076-5.273-2.95-8.634-8.298-8.962m532.598-266.763c-5.404.078-8.193 3.375-8.739 9.552.824 4.355 3.046 8.259 8.553 8.36 5.633.105 9.28-2.941 9.361-8.912.071-6.003-3.471-9.083-9.175-9m-355.833-.001c-5.737.016-9.342 3.384-9.216 9.12.131 5.697 3.84 8.981 9.56 8.787 5.519-.19 7.991-3.78 8.352-9.226-.552-5.247-3.167-8.698-8.696-8.681m88.958 642.941c5.293.267 8.614-3.11 9.314-8.853-.439-5.382-2.932-9.024-8.692-9.047-5.426-.023-8.997 2.713-9.214 8.554-.222 5.868 3.45 9.086 8.592 9.346m310.632-597.155c-5.654.124-8.275 3.656-8.703 8.748.434 6.145 3.85 9.321 9.148 9.158 5.27-.169 8.96-3.746 8.76-9.232-.19-5.345-3.584-8.798-9.205-8.674m-266.25-89.57c-5.387-.213-8.938 3.026-9.178 8.594-.234 5.567 2.894 8.958 8.408 9.29 5.715.348 8.302-3.386 9.495-8.368-.563-5.517-3.279-9.301-8.726-9.515m-177.137 89.57c-5.661-.13-8.999 3.136-9.206 8.644-.201 5.625 3.455 9.122 8.724 9.263 5.236.135 8.853-2.923 9.183-9.224-.296-5.102-2.984-8.554-8.701-8.683m310.493 597.156c5.473-.244 8.38-3.674 8.738-9.293-.676-5.608-3.745-8.736-9.303-8.605-5.624.125-8.845 3.651-8.599 9.157.246 5.369 3.528 8.997 9.164 8.741m-43.632-686.727c-5.417-.203-9.097 3.016-9.326 8.658-.228 5.614 2.96 8.974 8.566 9.233 5.692.265 8.778-2.96 9.338-8.123.028-6.115-3.15-9.565-8.578-9.768m221.661 133.36c-4.876.153-8.06 3.025-8.054 8.872 0 5.818 3.336 9.037 8.861 9.043 5.487.005 9.116-3.225 9.054-8.958-.057-5.573-3.217-8.826-9.86-8.957m-534.523 0c-5.813-.006-8.559 3.195-8.997 8.788.37 5.776 3.415 9.046 8.952 9.126 5.66.08 8.946-3.556 8.963-8.995.011-5.427-3.072-8.92-8.918-8.92m-44.56 328.425c5.774.3 8.838-2.698 9.685-7.958-.652-5.008-3.43-8.058-9.358-7.943-5.44.1-8.534 2.725-8.557 7.722-.028 4.876 2.881 7.9 8.23 8.18m.446-195.053c-5.064.123-8.273 3.35-8.676 9.017.42 5.72 3.75 8.906 9.315 8.894 5.34-.011 8.577-3.578 8.6-8.806.03-5.737-3.692-9.24-9.24-9.105m311.809 420.008c4.654-.228 7.743-2.688 7.95-8.328.206-5.833-2.306-9.4-7.75-9.58-4.971-.165-7.86 2.822-8.14 8.269-.301 5.844 2.312 9.23 7.94 9.64M959.3 418.024c-4.752.124-7.942 3.289-7.8 8.137.136 4.777 3.3 7.884 8.135 7.781 4.84-.102 7.407-3.192 7.785-8.013-.503-5.153-3.364-8.029-8.12-7.905m402.496 310.526c-4.87.487-8.117 2.759-8.203 8.032-.091 5.484 3.548 7.561 8.257 7.87 4.934.324 7.396-2.743 7.649-7.362.28-5.208-2.812-7.766-7.703-8.54M915.75 1011.213c5.283-.026 7.797-3.469 7.876-8.014.08-4.782-3.162-8.024-7.997-7.907-4.704.121-8.024 3.13-7.924 8.061.095 4.799 2.968 7.723 8.045 7.86m265.033-.049c5.966.474 8.907-2.512 9.502-7.12.641-4.955-2.62-8.116-7.219-8.68-4.835-.59-8.228 2.341-8.591 7.195-.348 4.656 1.983 8.089 6.308 8.605m-444.295-282.61c-4.871.123-8.036 3.21-7.934 8.419.102 4.699 2.548 7.676 7.95 7.482 4.995.31 7.618-2.922 7.945-7.853.365-5.424-3.09-8.163-7.96-8.047m615.118 97.362c.146 5.277 3.163 8.14 8.193 8.135 5.181-.006 7.901-3.12 7.718-8.402-.194-5.522-3.632-7.567-10.395-7.522-3.13.111-5.65 2.83-5.516 7.79m10.09-186.943c-4.863.373-7.95 2.668-8.1 7.822-.15 5.192 2.904 7.971 7.753 8.099 4.859.122 8.046-2.61 8.164-7.72.113-5.102-2.871-7.615-7.816-8.2m-223.51-220.948c-4.835.172-7.742 3.301-7.53 8.287.213 4.944 3.237 7.81 8.157 7.622 4.941-.188 7.3-3.424 7.757-8.008-.754-5.104-3.575-8.072-8.384-7.9m177.798 459.808c4.79-.17 7.596-3.355 7.748-8.62-.665-5.022-3.58-7.621-8.613-7.265-4.655.335-7.396 3.263-7.31 7.907.103 5.05 3.347 8.154 8.175 7.978m-541.612-7.49c.371 4.582 3.609 6.917 8.522 7.498 4.253-1.324 7.818-3.599 7.316-8.86-.437-4.64-3.309-7.325-8.178-7.045-5.198.29-8.075 3.35-7.66 8.407m274.615-452.326c-4.7-.028-7.82 2.72-7.915 7.637-.089 5.192 2.683 8.159 8.503 8.288 4.35-.208 7.233-2.72 7.41-7.603.2-5.366-2.91-8.293-7.998-8.322m-177.227 549.4c4.778-.303 7.816-2.842 8.057-7.498.257-5.012-2.501-8.365-7.822-8.426-4.705-.066-7.754 2.38-8.062 7.322-.336 5.38 2.78 7.799 7.827 8.602m400.648-43.81c5.295-.278 7.75-3.657 7.516-8.82-.235-5.203-3.666-6.904-8.454-7.088-4.815.33-7.51 3.229-7.455 7.912.067 5.114 3.103 8.27 8.393 7.996m-447.148-.03c5.17.48 7.745-2.754 8.79-8.155-.673-4.122-2.5-7.496-7.449-7.708-5.03-.218-8.343 2-8.472 7.546-.118 4.87 2.5 7.892 7.131 8.317m-42.696-328.398c-5.18-.05-8.402 2.788-8.224 8.222.16 4.97 3.322 7.38 8.263 7.702 4.465-.594 7.682-2.952 7.654-7.984-.033-4.88-2.817-7.894-7.693-7.94m533.357.006c-4.832-.16-7.87 2.849-8.1 7.557-.256 5.271 3.011 8.456 8.095 8.36 4.62-.086 7.396-2.94 7.816-8.218-.562-4.606-3.06-7.54-7.81-7.7m-87.912 372.232c4.656.05 7.806-2.452 8.112-7.35.333-5.331-2.756-7.882-7.673-8.574-4.928.214-8.033 2.682-8.217 7.42-.2 4.97 2.445 8.454 7.778 8.504m-223.031 45.783c5.2.052 7.375-3.398 8.223-8.238-.773-4.72-3.424-7.786-8.435-7.683-4.655.091-7.472 3.118-7.49 7.637-.023 4.754 2.48 8.233 7.702 8.284m89.995 0c5.227-.074 7.792-3.512 7.804-8.254.011-4.561-2.996-7.074-7.568-7.67-4.888.51-8.425 2.978-8.356 7.925.07 4.663 2.91 8.072 8.12 7.999M915.78 461.813c-4.417.889-8.144 2.584-8.075 8.06.076 5.292 3.24 7.801 8.174 7.864 4.714.069 7.483-2.715 7.733-7.377.273-5.172-2.78-7.716-7.832-8.546m266.545 0c-4.805.766-8.061 3.14-7.876 8.358.162 4.665 2.956 7.447 7.58 7.563 5.001.12 8.194-2.61 8.333-7.707.134-5.184-3.233-7.523-8.037-8.214M780.659 788.269c4.254-.263 7.305-2.032 7.586-6.4.297-4.624-2.208-7.432-6.862-7.532-4.264-.094-6.92 2.389-7.044 6.62-.12 4.167 2.337 6.671 6.32 7.312m490.25-236.878c-4.454-.049-7.126 2.748-6.876 7.567.234 4.519 3 6.503 7.177 6.359 4.282-.145 6.397-2.739 6.74-6.792-.416-4.626-3.114-7.086-7.042-7.134m-445.789-.001c-4.143.804-7.119 2.897-6.988 7.18.132 4.632 3.145 6.98 7.703 6.737 4.406-.238 6.404-3.014 6.215-7.281-.195-4.447-3.097-6.197-6.93-6.636m492.049 133.38c-5.025.201-7.532 3.288-7.36 7.203.178 3.967 3.1 6.645 8.047 6.72 4.895-.276 7.87-3.002 7.87-6.948-.006-4.403-3.224-7.187-8.557-6.975M871.37 507.606c-4.6-.174-7.466 2.22-7.46 6.952.01 4.368 2.995 6.314 7.1 6.973 3.857-.559 6.764-2.336 6.832-6.836.068-4.325-2.143-6.925-6.472-7.089m-83.102 183.977c-.038-4.795-2.456-6.748-6.557-6.822-4.52-.085-7.322 2.357-7.377 6.599-.06 4.545 2.744 7.461 7.594 7.328 4.813-.133 5.927-3.736 6.34-7.105m438.846-183.986c-4.423.437-6.81 2.602-6.89 7.004-.088 4.57 2.797 6.956 6.69 6.93 4.155-.037 7.477-2.401 7.23-7.31-.226-4.428-3.263-6.102-7.03-6.624M960.034 967.416c4.186.14 6.572-2.735 7.387-6.926-.901-3.941-2.718-7.18-7.205-6.996-4.272.18-6.813 2.92-6.727 7.252.08 4.028 2.825 6.545 6.545 6.67m177.735.004c3.934-.044 6.44-2.712 6.813-7.023-.452-4.062-2.623-6.98-7.27-6.91-4.247.055-6.512 2.815-6.657 6.78-.173 4.555 2.79 7.202 7.114 7.153m178.275-193.085c-4.159.027-6.266 3.019-6.244 6.924.022 4.41 2.685 6.65 7.122 7.01 4.654-.414 6.945-3.073 6.806-7.338-.156-4.55-3.575-6.623-7.684-6.596m-311.446-310.52c-4.64-.198-7.239 2.371-7.317 6.92-.073 4.224 2.538 6.325 6.768 7.004 3.832-.359 6.858-2.068 7.138-6.287.292-4.372-1.866-7.433-6.589-7.637m88.467.02c-4.296.323-6.328 3.184-6.205 7.257.141 4.157 2.545 6.728 6.807 6.645 4.515-.09 7.11-2.55 7.122-8.175-.647-3.49-3.119-6.072-7.724-5.727M916.328 921.62c4.294.286 6.362-2.768 7.3-6.611-.356-4.26-2.198-7.2-6.622-7.303-4.215-.085-7.255 2.35-7.311 6.502-.051 3.9 2.452 7.137 6.633 7.412m356.342-280.636c-4.098.232-6.94 2.827-6.641 7.263.287 4.315 3.315 6.956 7.355 6.626 3.85-.313 6.785-2.797 6.543-8.016-.213-4.048-3.177-6.104-7.257-5.873m-402.128 236.85c4.218.216 6.453-2.63 7.303-6.667-.408-4.392-2.644-7.115-6.839-7.25-4.154-.14-6.973 2.164-7.092 6.644-.108 4.415 2.513 7.063 6.628 7.273m-43.191-236.867c-4.728.432-7.4 2.438-7.225 7.026.169 4.409 2.864 7.014 7.015 6.905 4.07-.11 6.951-2.704 6.91-7.119-.04-4.472-2.91-6.443-6.7-6.812m222.856 326.454c4.276-.047 6.892-2.456 6.786-8.275-.181-3.241-2.856-5.744-7.044-5.656-4.158.099-6.939 2.665-6.886 7.14.053 4.533 2.921 6.837 7.144 6.79m223.07-133.367c4.09-.583 6.782-2.613 6.66-7.197-.11-4.543-2.685-6.806-7.043-6.736-4.421.07-6.921 2.823-6.887 7.04.035 4.333 2.9 6.555 7.27 6.893m-96.786 81.005c.43 4.078 2.91 6.953 7.246 6.54 4.188-.4 5.918-3.705 6.628-7.703-1.151-3.798-3.282-6.495-7.71-6.163-4.44.326-6.622 3.053-6.164 7.326m-349.8-81.026c4.423.277 7.097-2.23 7.343-6.62.246-4.377-2.048-6.983-5.488-7.278-5.605-.23-8.132 2.083-8.407 6.502-.275 4.472 2.188 7.125 6.552 7.396m399.849 43.793c4.24.29 6.622-2.542 7.618-6.946-.593-3.997-2.676-6.852-7.02-6.964-3.919-.101-6.577 2.311-6.882 6.207-.34 4.274 2.014 7.408 6.284 7.703m45.843-135.339c2.739-.324 5.358-1.603 5.555-5.474.208-4.143-2.229-6.459-5.991-6.47-3.399-.004-5.924 2.41-5.94 5.91-.015 3.384 1.96 5.778 6.376 6.034m-402.65-145.298c-3.916.244-6.071 2.513-5.8 6.622.262 3.882 2.93 5.38 6.287 5.305 3.71-.074 5.039-2.882 5.634-6.135-.878-3.348-2.34-6.024-6.122-5.792m274.81-83.994c-.327-3.3-2.71-5.308-6.61-5.596-2.86 1.045-5.512 2.538-5.28 6.276.244 3.995 2.68 5.962 6.696 5.632 3.8-.309 5.522-3.006 5.195-6.312m-312.5 223.833c.256-3.891-2.267-6.536-6.14-6.483-3.356.042-5.816 2.092-5.785 5.936.037 3.702 1.996 5.715 5.066 6 4.363.147 6.635-2.057 6.86-5.453m127.503-229.429c-3.724.382-5.922 2.402-6.054 5.925-.136 3.559 1.745 5.955 5.753 6.017 3.871.057 5.987-1.942 6.173-5.64.197-3.843-2.373-5.393-5.872-6.302m268.605 89.576c-4.198.33-6.062 2.563-5.931 6.218.136 3.677 2.366 5.957 6.121 5.707 3.576-.24 5.991-2.451 5.806-6.192-.19-3.67-2.584-5.488-5.996-5.733M1049.48 507.61c-3.533-.195-6.362 2.075-6.417 5.931-.05 3.322 2.031 5.793 5.47 5.988 3.804.206 5.934-2.07 6.473-5.87-.253-3.517-2.405-5.877-5.526-6.05m133.27 45.775c-3.78-.084-6.336 1.983-6.319 6.015.017 4.06 2.704 6.1 6.41 5.914 3.325-.168 5.5-2.391 5.534-6.961-.29-2.493-2.124-4.89-5.625-4.968m-267.339.001c-3.32.095-5.649 2.254-5.716 5.798-.073 4.026 2.632 6.218 6.204 6.14 3.14-.062 5.598-2.108 5.738-6.168-.196-3.617-2.458-5.876-6.226-5.77m178.098 368.253c3.274-.314 5.312-2.372 5.29-5.815-.023-3.73-1.811-6.247-6.121-6.124-3.809.112-5.71 2.546-5.819 5.737-.12 3.757 2.306 5.956 6.65 6.202m-88.42 0c3.758-.237 6.218-2.245 6.121-6.153-.074-3.38-2.14-5.635-5.785-5.782-4.185-.17-6.15 2.25-6.155 6.097 0 3.509 1.97 5.584 5.82 5.838M871.865 686.755c-3.644.133-6.069 2.427-5.961 6.262.09 3.406 2.496 5.501 5.662 5.664 3.632.181 6.033-1.823 6.278-5.833-.174-3.859-2.169-6.232-5.98-6.093m355.65.057c-3.707.483-5.68 2.906-5.24 6.743.404 3.445 2.834 5.264 6.013 5.13 3.654-.162 5.668-2.531 5.87-6.99-.998-2.786-2.757-5.385-6.643-4.883m-355.983 89.541c-3.34.232-5.55 1.929-5.628 4.772-.102 3.327 2.634 5.116 6.137 5.152 3.617.036 5.952-1.8 5.796-6.124-.275-2.483-2.467-4.062-6.305-3.8m355.754.03c-3.466.387-5.118 2.488-5.07 5.93.06 4.168 3.042 5.237 6.239 5.956 3.59-.876 6.108-2.936 5.649-6.734-.454-3.672-2.995-5.575-6.818-5.152M1184.5 832.06c2.343-.537 4.198-2.587 3.826-5.566-.356-2.942-2.463-4.72-5.747-4.332-2.967.35-4.314 2.443-4.144 5.024.192 2.98 2.009 4.952 6.065 4.874m-269.962.002c3.245-.254 5.187-2.195 5.105-5.209-.082-3.02-2.029-4.844-5.34-4.74-3.021.095-4.549 2.041-4.609 4.607-.06 2.953 1.626 5.088 4.844 5.342m179.11-268.728c3.236 0 4.899-1.876 5.15-5.325-.458-2.913-2.12-4.8-5.385-4.615-3.336.18-4.764 2.257-4.547 5.488.196 2.94 1.97 4.452 4.782 4.452m-89.08-9.953c-3.049.15-5.219 1.554-5.297 4.869-.083 3.28 1.914 4.968 5.103 5.08 2.926.105 4.646-1.51 4.83-4.379.194-3.119-1.147-5.252-4.636-5.57m-44.105 322.464c2.995-.165 4.705-2.288 4.966-5.4-.534-3.183-2.401-4.687-5.548-4.532-2.973.144-4.421 2.139-4.405 4.77.022 3.034 1.802 5.34 4.987 5.162m177.299-.006c3.102-.206 4.626-2.366 4.828-5.383-.663-3.262-2.554-4.827-5.721-4.515-2.861.284-4.335 2.06-4.226 4.938.137 3.223 1.93 5.172 5.119 4.96m2.05-266.721c2.926-.664 5.13-2.344 4.72-5.474-.38-2.898-2.381-4.828-5.699-4.426-2.834.34-4.205 2.076-4.205 4.864 0 3.373 2.081 4.67 5.184 5.036m42.303 33.845c-2.312.105-3.553 1.736-3.683 4.574-.154 3.317 1.271 4.986 3.838 5.373 2.587-.209 4.166-1.883 4.112-5.115-.05-3.225-1.635-4.949-4.267-4.832m-132.659 230.89c2.893.136 5.046-.912 5.549-3.995-.586-2.055-1.798-3.877-4.993-3.953-3.265-.081-4.862 1.696-4.957 4.13-.094 2.259 1.793 3.691 4.401 3.818M915.523 642.957c-2.325-.025-3.625 1.185-3.814 3.461-.214 2.582.986 4.305 3.595 4.486 2.555.176 4.039-1.25 4.343-3.853-.284-2.477-1.445-4.07-4.124-4.094m43.55-35.84c2.487.128 4.288-1.024 4.363-3.725.076-2.581-1.32-3.99-3.949-4.228-2.645.198-4.01 1.647-4.01 4.189-.005 2.265 1.38 3.65 3.595 3.763m223.644 125.42c-2.473-.077-4.322 1.098-4.294 3.745.017 2.504 1.805 3.723 4.138 4.214 2.373-.59 3.9-1.864 3.821-4.468-.072-2.333-1.543-3.425-3.665-3.491m-266.868-.004c-2.598.067-4.331 1.334-4.15 3.933.157 2.343 1.676 4.162 4.257 4.022 2.05-.106 3.535-1.45 3.676-3.67.175-2.605-1.135-4.05-3.783-4.285m88.904 89.578c-2.272.058-3.428 1.651-3.49 3.984-.056 2.367 1.01 3.84 3.378 3.966 2.586.139 4.201-1.097 4.583-3.781-.387-2.702-1.936-4.232-4.471-4.169m44.983-215.07c2.295-.383 3.116-2.055 3.28-4.26-.685-2.485-2.215-3.976-4.815-3.541-2.187.366-3.41 1.921-3.099 4.255.351 2.676 1.943 3.993 4.634 3.546"/></g></svg>