<svg viewBox="0 0 572.8 523" xmlns="http://www.w3.org/2000/svg"><path d="M0 316.8c0 11.7 15 13 16.7 13.3s3.4.5 5.1.7c1.6.1 3.1.2 4.6.2s3.1-.1 4.8-.2c2-.1 4-.5 5.9-1 2.1-.5 4.1-1.2 6.1-2.1.2-.1.4-.2.5-.3.3 0 .6.1.9.1l15.1 1.7c2.2.3 4.3-.2 6.2-1.2 1.5.9 3.2 1.3 5 1.3.5 0 1 0 1.5-.1l14.7-2.2c.8-.1 1.6-.4 2.4-.7.3.2.7.4 1 .5 3.6 1.8 7.6 2.7 11.7 2.7 1.4 0 2.8-.1 4.2-.3 1-.1 2-.4 3-.6 2.1 2.2 5 3.5 7.8 3.5h.5l12.3-.7c1.8-.1 3.5-.6 5-1.5 1.9.8 4.1 1 6.2.6l13.8-2.9c.5-.1 1-.2 1.5-.4.5.3 1 .5 1.5.8 3.9 2 8.1 2.9 12.6 2.9 2.1 0 4.4-.2 6.7-.7s4.6-1.2 6.8-2.1c.4-.1.7-.3 1-.5 1.7 1.1 5.7 1.3 5.7 1.3h12.8s2.9.1 4.2-.4c1.5.7 3 1.1 4.6 1.1.8 0 1.5-.1 2.3-.3l13.4-3.1c1.3-.3 2.6-.9 3.7-1.7 1.9 1.1 3.8 2 5.8 2.7 2.6.9 5.5 1.3 8.3 1.3 3 0 5.9-.5 8.6-1.4 2.6-.9 5.2-2.2 7.5-3.9.7-.5 1.4-1.1 2.1-1.6.2.3.4.5.6.8 2.3 2.8 5 5 8.2 6.6s6.8 2.5 10.8 2.5c3.5 0 6.8-.7 9.9-2.2 1.6-.8 3.2-1.8 4.6-2.9 2.1 1.9 7.3 3 7.3 3h13.4s3.7-.6 5.3-1.5c1.7.8 3.5 1.1 5.4.9l12.9-1.4c1.4 1 3 1.5 4.6 1.8l3.3.3s2.2.1 3.4.1c3.1 0 6.2-.3 9.2-.9 3.1-.6 6.2-1.5 9-2.8 3-1.4 5.8-3.1 8.4-5.2 1-.8 1.9-1.6 2.7-2.6.5 2.7 1.6 5.2 3.3 7.2 2.3 2.6 5.4 4.1 8.7 4l13.7-.5c2.5-.1 4.8-1.1 6.7-2.7.2.3.5.6.7.9 2.2 2.5 8.2 3.8 8.2 3.8h.5l13.5-.7c2.5-.1 4.8-1.2 6.7-2.8.9.6 1.8 1.1 2.7 1.6 3.2 1.6 6.8 2.5 10.8 2.5 3.5 0 6.8-.7 9.9-2.2 2.5-1.2 4.7-2.8 6.8-4.7 1 .5 2.2 1.1 3.5 1.8l4.2 1.8c1.5.6 3.1 1.1 4.6 1.5 2 .5 3.9.8 5.7.8 3.7 0 7.2-.6 10.5-1.8 1.3-.5 2.6-1 3.8-1.7 1.9 1.4 4.1 2.2 6.3 2.2h.7l12.5-.8c2.6-.1 5-1.3 6.8-3.1.8.5 1.7 1 2.6 1.5 3.6 1.8 7.6 2.7 11.7 2.7 1.4 0 2.8-.1 4.2-.3s2.8-.5 4.1-.9 2.6-.8 3.8-1.3c1.5-.6 2.8-1.3 4.1-2 3.6-2.2 6.1-6.4 6.4-11.2l1.2-16.3c.2-3.4-.6-6.7-2.3-9.4.6-1.4 1-2.8 1.1-4.3l1.9-14.5c.5-4.1-.6-8-2.8-11 .3-1 .5-2.1.6-3.2l1.6-19.7c.3-3.9-.8-7.7-3-10.7s-5.4-4.6-8.7-4.6h-2.9c.1-1.5.2-2.9.3-4.4.6-6.5 1.1-13 1.7-19.4.4-3.9-.7-7.9-3-10.8-2.2-2.9-5.5-4.6-8.8-4.6h-19.3c-3.7 0-7 1.9-9.2 5 0-.1-.1-.2-.2-.2-2.3-3-5.6-4.7-9-4.7h-20.4c-2.1 0-4.2.7-5.9 1.8h.1l-20.3.9s-3.7-1.5-5.9-1.6l-17.4-.5c-2.5-.1-7 2.6-7 2.6h-.2l-18.2-1c-1.1 0-2.2.1-3.3.4-2.1-1-4.3-1.8-6.6-2.2-2.4-.4-4.8-.7-7.2-.7-6.4 0-12.2 1.5-17.4 4.5-5.1 3-9.5 7.2-13.1 12.5-.4.6-.8 1.2-1.1 1.8 0-.7.1-1.4.1-2.1.2-4.1-1-8.2-3.2-11.1s-5.4-4.7-8.7-4.7h-35.5c-1.2 0-2.3.2-3.4.6-.5-.1-1.1-.2-1.7-.2h-42c-2.1.2-4.1.8-5.8 1.9-2-1.4-4.3-2.1-6.7-2L238 183c-1.7.1-3.3.6-4.7 1.5-1.4-.8-2.9-1.3-4.4-1.4l-17.6-1.3c-3-.2-5.8.9-8 2.9-2.3-2.1-5.2-3.1-8.3-2.8l-17 1.8c-1.5-.6-3.1-.9-4.6-.8l-17.8 1.1c-1.9-1.4-4-2.1-6.2-1.7l-41.7.1c-1.1 0-2.3.2-3.3.5-1.5-.5-3.1-1-4.6-1.3-2.4-.4-4.8-.6-7.2-.6-6.4 0-12.2 1.4-17.4 4.2-5.1 2.8-9.5 6.7-13.1 11.6-.3.4-.5.7-.7 1.1L60 192c-1.5-6.2-6.5-10.3-11.9-10l-21.2 1.2c-5 .3-9.3 4.2-10.8 9.8L.7 252.4" fill="#e6262b"/><path d="M67.2 258.3c.1.6-.2 1.2-.9 1.3l-16.6 2.5c-.6.1-1.3-.3-1.4-1l-1.8-7.7c-.1-.6-.8-1.1-1.4-1.1h-6.4c-.6 0-1.3.5-1.4 1.1l-1.5 7.7c-.1.6-.7 1.1-1.4 1l-17.2-2c-.6-.1-1-.6-.9-1.3L30.9 202c.2-.6.8-1.1 1.5-1.2l18.9-1.1c.6 0 1.3.5 1.5 1zm-23.5-19.6c.6 0 1-.5 1-1.1l-2.5-13.1c-.1-.6-.3-.6-.4 0l-2.4 13.1c-.1.6.3 1.1 1 1.1zm62.4-38.3c.6.3 1 1 .9 1.6l-1.9 16.4c-.1.6-.6 1-1.3.9 0 0-.4-.1-1.1-.2s-1.5-.1-2.2-.1c-1.9 0-3.7.3-5.4.9s-3.2 1.5-4.5 2.6c-1.3 1.2-2.4 2.6-3.1 4.4s-1.2 3.9-1.2 6.2c0 1.5.2 2.9.6 4s1 2.1 1.8 2.8 1.7 1.3 2.7 1.6 2.2.5 3.4.5c1 0 1.9-.1 3-.4 1-.2 2-.5 3-.9s2-.8 2.9-1.3c1-.5 1.6-.9 1.6-.9.5-.4 1-.1.9.5l-1.4 18.5c0 .6-.5 1.4-1.1 1.7 0 0-1 .5-2.2 1-1.1.5-2.4.9-3.6 1.2s-2.5.6-3.7.8-2.4.3-3.5.3c-3.2 0-6.2-.7-9.1-2.1-2.8-1.4-5.2-3.3-7.3-5.7s-3.7-5.3-4.9-8.6-1.8-6.8-1.8-10.7c0-5.1.6-9.8 1.9-14.3 1.2-4.5 3.1-8.4 5.5-11.8s5.4-6 9-8 7.7-2.9 12.3-2.9c1.8 0 3.6.2 5.4.5 2.1.5 4.4 1.5 4.4 1.5zm46.1-.6c.6 0 1.1.5 1.1 1.2l-.3 16.5c0 .6-.5 1.2-1.2 1.2l-9.1.4c-.6 0-1.2.6-1.2 1.2l-2.7 39.7c0 .6-.6 1.2-1.2 1.2l-13.8.8c-.6 0-1.2-.5-1.1-1.1l.1-39.7c0-.6-.5-1.1-1.1-1.1l-9.1.5c-.6 0-1.1-.5-1.1-1.1l.4-18.6c0-.6.5-1.2 1.2-1.2zm24.7 1.1c.6 0 1.1.5 1.1 1.1l-4.1 58.1c0 .6-.6 1.2-1.2 1.2l-13.8.8c-.6 0-1.2-.5-1.2-1.1v-57.8c0-.6.5-1.2 1.2-1.2zm54.2 0c.6 0 1 .6.9 1.2l-13.5 59.5c-.1.6-.8 1.2-1.4 1.2l-16.6 1.1c-.6 0-1.3-.4-1.5-1l-16.6-60.1c-.2-.6.2-1.2.9-1.2l15.8-1.7c.6-.1 1.3.4 1.4 1l6.9 34.1c.1.6.3.6.5 0l6.7-34.1c.1-.6.7-1.1 1.4-1zm47.5 57.4c.1.6-.2 1.2-.9 1.3l-16.6 2.5c-.6.1-1.3-.3-1.4-1l-1.8-7.7c-.1-.6-.8-1.1-1.4-1.1h-6.4c-.6 0-1.3.5-1.4 1.1l-1.5 7.7c-.1.6-.7 1.1-1.4 1l-17.2-2c-.6-.1-1-.6-.9-1.3l14.5-56.8c.2-.6.8-1.1 1.5-1.2l18.9-1.1c.6 0 1.3.5 1.5 1zm-23.5-19.6c.6 0 1-.5 1-1.1l-2.5-13.1c-.1-.6-.3-.6-.4 0l-2.4 13.1c-.1.6.3 1.1 1 1.1zm61.2-38.9c.6 0 1.1.5 1.1 1.2l-.3 16.5c0 .6-.5 1.2-1.2 1.2l-9.1.4c-.6 0-1.2.6-1.2 1.2l-2.7 39.7c0 .6-.6 1.2-1.2 1.2l-13.8.8c-.6 0-1.2-.5-1.1-1.1l.1-39.7c0-.6-.5-1.1-1.1-1.1l-9.1.5c-.6 0-1.1-.5-1.1-1.1l.4-18.6c0-.6.5-1.2 1.2-1.2zm41-.9c.6 0 1.1.5 1.1 1.2 0 0-.2 4.4-.4 7.1-.1 2.8-.4 7.2-.4 7.2 0 .6-.6 1.2-1.2 1.2l-14 .8c-.6 0-1.2.6-1.2 1.2l-.2 3.3c0 .6.5 1.2 1.1 1.2h9.1c.6 0 1.1.5 1.1 1.2l-.7 11.5c0 .6-.6 1.2-1.2 1.2l-9.2.4c-.6 0-1.2.6-1.2 1.2l-.2 4.2c0 .6.5 1.2 1.1 1.2h14c.6 0 1.1.5 1.1 1.2 0 0-.3 5.3-.4 8.5-.2 3.2-.4 8.5-.4 8.5 0 .6-.6 1.2-1.2 1.2l-30.6.8c-.6 0-1.1-.5-1.1-1.1l1.2-61.6c0-.6.5-1.2 1.2-1.2h32.9v-.4zm53.8 1.5c.6.3 1 1 .9 1.6l-1.9 16.4c-.1.6-.6 1-1.3.9 0 0-.4-.1-1.1-.2s-1.5-.1-2.2-.1c-1.9 0-3.7.3-5.4.9s-3.2 1.5-4.5 2.6c-1.3 1.2-2.4 2.6-3.1 4.4-.8 1.8-1.2 3.9-1.2 6.2 0 1.5.2 2.9.6 4s1 2.1 1.8 2.8 1.7 1.3 2.7 1.6c1 .4 2.2.5 3.4.5 1 0 1.9-.1 3-.4 1-.2 2-.5 3-.9s2-.8 2.9-1.3c1-.5 1.6-.9 1.6-.9.5-.4 1-.1.9.5l-1.4 18.5c0 .6-.5 1.4-1.1 1.7 0 0-1 .5-2.2 1-1.1.5-2.4.9-3.6 1.2s-2.5.6-3.7.8-2.4.3-3.5.3c-3.2 0-6.2-.7-9.1-2.1-2.8-1.4-5.2-3.3-7.3-5.7s-3.7-5.3-4.9-8.6-1.8-6.8-1.8-10.7c0-5.1.6-9.8 1.9-14.3 1.2-4.5 3.1-8.4 5.5-11.8s5.4-6 9-8 7.7-2.9 12.3-2.9c1.8 0 3.6.2 5.4.5 2.1.5 4.4 1.5 4.4 1.5zm51.5 61.6c0 .6-.5 1.2-1.1 1.2l-16.8 1c-.6 0-1.2-.5-1.2-1.1l-.1-18.3c0-.6-.6-1.2-1.2-1.2h-6.5c-.6 0-1.2.6-1.2 1.2L434 262c0 .6-.6 1.2-1.2 1.2H418c-.6 0-1.1-.5-1.1-1.2l1.4-60.3c0-.6.5-1.1 1.2-1.1l15.9.9c.6 0 1.1.6 1.1 1.2l-1 29.7c0 .6.5 1.2 1.1 1.2h6.2c.6 0 1.2-.5 1.2-1.2l.1-32c0-.6.5-1.1 1.2-1.1l15.1.5c.6 0 1.2.5 1.2 1.2zm24.7-61.1c.6 0 1.1.5 1.1 1.1l-4.1 58.1c0 .6-.6 1.2-1.2 1.2l-13.8.8c-.6 0-1.2-.5-1.2-1.1v-57.8c0-.6.5-1.2 1.2-1.2zm38.1 37.3c.6 0 1.1.5 1.1 1.1l-1.4 17.5c0 .6-.6 1.2-1.3 1.3l-30 2.8c-.6 0-1.1-.4-1.1-1.1 0 0 .3-19.5.5-29.8s.7-29.8.7-29.8c0-.6.6-1.2 1.2-1.2h17.6c.6 0 1.1.5 1.1 1.1 0 0-1.1 11.9-1.6 18.3-.5 6.5-1.1 18.5-1.1 18.5 0 .6.5 1.2 1.1 1.2H525.4zm37.9 0c.6 0 1.1.5 1.1 1.1l-1.4 17.5c0 .6-.6 1.2-1.3 1.3l-30 2.8c-.6 0-1.1-.4-1.1-1.1 0 0 .3-19.5.5-29.8s.7-29.8.7-29.8c0-.6.6-1.2 1.2-1.2h17.6c.6 0 1.1.5 1.1 1.1 0 0-1.1 11.9-1.6 18.3-.5 6.5-1.1 18.5-1.1 18.5 0 .6.5 1.2 1.1 1.2H563.3zM50 307.8c0 1.9-.3 3.6-.9 5s-1.4 2.6-2.4 3.6-2.2 1.8-3.5 2.4-2.7 1.1-4.1 1.5-2.9.6-4.3.7-2.8.2-4 .2-2.5 0-3.8-.1-2.6-.3-3.9-.5c-1.3-.3-2.6-.6-3.9-1s-2.6-1.1-2.6-1.1c-.6-.3-1-1-1-1.7v-42.4c0-.6.5-1.4 1-1.6 0 0 1.2-.5 2.5-1 1.2-.4 2.5-.8 3.8-1.1s2.6-.5 3.9-.7c1.3-.1 2.6-.2 3.7-.2 1.4 0 2.8.1 4.2.3s2.8.5 4.1 1 2.6 1.1 3.7 1.9 2.1 1.7 3 2.9c.9 1.1 1.5 2.5 2 4s.7 3.2.7 5.2c0 1.3-.1 2.5-.5 3.6-.3 1.1-.8 2.1-1.4 3.1s-1.3 1.7-2.2 2.3-1.8 1-1.8 1c-.6.2-.6.6 0 .9 0 0 1.4.5 2.4 1.3s2 1.7 2.7 2.8 1.3 2.3 1.7 3.7c.7 1 .9 2.5.9 4zm-19.5-8.5h-.6c-.6.1-1.1.7-1.1 1.4l-.1 5.6c0 .6.2 1.2.6 1.3h.3c.3 0 .5.1.9.1s.9 0 1.4-.1 1-.3 1.4-.6.8-.7 1.1-1.3c.3-.5.4-1.2.4-2.1s-.1-1.6-.4-2.1-.6-1-1-1.3-.9-.5-1.4-.6c-.7-.3-1.1-.3-1.5-.3zm4.2-11.3c0-.7-.1-1.2-.4-1.7-.2-.5-.5-.9-.9-1.2s-.7-.5-1.1-.7c-.4-.1-.8-.2-1.1-.2-.4 0-.8.1-1.1.2l-.4.1c-.4.2-.7.9-.7 1.5l-.1 5.4c0 .6.4 1.1 1 1.1l.7-.1c.7-.1 1.3-.3 2-.6s1.1-.8 1.6-1.4c.3-.5.5-1.3.5-2.4zm54.8 28.1c.1.6-.2 1.2-.9 1.3l-12.4 1.9c-.6.1-1.3-.3-1.4-1l-1.3-5.6c-.1-.6-.8-1.1-1.4-1.1h-4.4c-.6 0-1.3.5-1.4 1.1l-1 5.6c-.1.6-.7 1.1-1.4 1l-12.8-1.5c-.6-.1-1-.6-.9-1.3l11.3-44.1c.1-.6.8-1.1 1.5-1.2l14.2-.8c.6 0 1.3.5 1.5 1zm-18.4-15c.6 0 1-.5 1-1.1l-1.8-9.8c-.1-.6-.3-.6-.4 0l-1.8 9.8c-.1.6.3 1.1 1 1.1zm46.9-30.3c.6.3 1 1 .9 1.6l-1.4 12.3c-.1.6-.6 1-1.3.9l-.6-.1c-.6-.1-1.1-.1-1.7-.1-1.5 0-2.9.2-4.2.7s-2.5 1.1-3.5 2.1c-1 .9-1.8 2.1-2.4 3.5s-.9 3-.9 4.9c0 1.2.2 2.2.5 3.1s.8 1.6 1.4 2.2 1.3 1 2.1 1.3 1.7.4 2.7.4c.7 0 1.5-.1 2.3-.3s1.6-.4 2.3-.7c.8-.3 1.5-.6 2.3-1 .7-.4 1-.6 1-.6.5-.4 1-.1.9.5l-1 14c0 .6-.5 1.4-1.1 1.7 0 0-.6.3-1.5.7s-1.8.7-2.8 1-1.9.5-2.9.6-1.9.2-2.7.2c-2.5 0-4.9-.5-7-1.6-2.2-1.1-4.1-2.6-5.7-4.5s-2.9-4.1-3.8-6.7-1.4-5.4-1.4-8.4c0-4 .5-7.7 1.5-11.2s2.4-6.6 4.3-9.3c1.9-2.6 4.2-4.7 7-6.2s6-2.3 9.6-2.3c1.4 0 2.8.1 4.2.4 1.4.2 2.9.9 2.9.9zm40.2-.5c.6 0 .9.5.5 1.1l-13.1 21.2c-.3.5-.4 1.5-.1 2.1l11 22.6c.3.6 0 1.1-.6 1.3l-11.5 2.4c-.6.1-1.4-.2-1.7-.8l-7.8-13c-.3-.5-.6-.5-.6.2l-.4 13.4c0 .6-.5 1.2-1.2 1.2l-10 .5c-.6 0-1.1-.5-1.1-1.1l.9-50.9c0-.6.5-1.1 1.2-1.1l11.5.8c.6 0 1.1.6 1.1 1.2l-.9 13.4c0 .6.2.7.5.1l8.1-14.6c.3-.5 1.1-1 1.7-.9zm33.5 41.4c0 .6-.3 1.6-.7 2 0 0-1.3 1.6-2.7 2.7-1.4 1-2.8 1.8-4.3 2.5s-3.1 1.2-4.8 1.5c-1.6.3-3.2.5-4.6.5-2.8 0-5.4-.6-7.8-1.8s-4.5-2.8-6.2-5-3.1-4.5-4.1-7.4c-1-2.8-1.5-5.9-1.5-9.2 0-2.5.2-5 .7-7.3.5-2.4 1.2-4.6 2.1-6.8.9-2.1 2-4.1 3.3-5.9s2.8-3.3 4.5-4.6 3.5-2.3 5.4-3c2-.7 4.1-1.1 6.3-1.1.9 0 1.8 0 2.7.1s1.9.2 2.9.4c.9.2 1.9.5 2.8.8.9.4 1.5.7 1.5.7.5.3.9 1.1.9 1.8l-.7 10.8c0 .6-.5 1-1.2.8 0 0-1.1-.4-2.3-.6s-2.3-.3-3.4-.3c-1.6 0-3 .3-4.4.9-1.4.5-2.5 1.4-3.6 2.4-1 1-1.8 2.3-2.4 3.8s-.9 3.2-.9 5.1c0 1.2.1 2.3.4 3.5.3 1.1.7 2.1 1.3 3 .5.9 1.3 1.5 2.1 2.1.8.5 1.8.8 2.9.8.7 0 1.5-.1 2.3-.4.8-.2 1.1-.5 1.1-.5.5-.4.9-1.2 1-1.8v-.2c0-.6-.5-1.2-1.1-1.2l-4.7-.1c-.6 0-1.1-.5-1.1-1.2l.3-8c0-.6.5-1.2 1.2-1.2 0 0 4.7-.2 7.6-.3s7.7-.3 7.7-.3c.6 0 1.2.5 1.2 1.1zm38.4-25c0 1.8-.1 3.5-.4 4.9-.3 1.5-.7 2.8-1.3 4.1-.6 1.2-1.3 2.4-2.2 3.4s-2.4 2.2-2.4 2.2c-.5.4-.7 1.2-.4 1.8l6.1 12.7c.3.6 0 1.2-.6 1.3l-11.1 2.6c-.6.1-1.3-.2-1.5-.9l-3.9-12.6c-.2-.6-.9-1.1-1.5-1h-1.4c-.6 0-1.2.5-1.2 1.2l-.5 12.1c0 .6-.5 1.2-1.2 1.2h-10.4c-.6 0-1.1-.5-1.1-1.2 0 0 .2-9.4.3-14.6s.2-10.5.3-15.8c0-2.7.1-5.3.1-7.9s.2-6.7.2-6.7c0-.6.5-1.4 1.1-1.6 0 0 1.7-.7 3-1 1.4-.4 2.7-.7 4.1-.9s2.7-.4 4.1-.5 2.8-.1 4.3-.1c2.3 0 4.4.4 6.6 1.1 2.1.7 4 1.8 5.6 3.3s2.9 3.3 3.9 5.5c.9 2 1.4 4.6 1.4 7.4zm-13.6 1.1c0-1-.1-1.9-.3-2.7s-.5-1.5-1-2.1-1-1-1.6-1.4c-.7-.3-1.5-.5-2.3-.5-.4 0-.8 0-1.1.1h-.4c-.4.1-.7.7-.8 1.4l-.5 10.6c0 .6.1 1.2.3 1.2s.9 0 1.5-.1c0 0 .5 0 1.4-.3s1.7-.6 2.4-1.2c.7-.5 1.3-1.2 1.7-2.1.5-.8.7-1.8.7-2.9zm52.4 7.8c0 2.1-.2 4.1-.6 6.1s-1 3.8-1.8 5.5-1.7 3.3-2.9 4.7c-1.1 1.4-2.4 2.6-3.8 3.7-1.4 1-2.9 1.8-4.6 2.4-1.6.5-3.4.9-5.2.9s-3.5-.3-5.1-.8-3.1-1.3-4.5-2.2c-1.4-1-2.7-2.1-3.8-3.5s-2.1-2.9-2.9-4.5-1.4-3.4-1.9-5.3-.7-3.9-.7-6c0-2 .2-4 .6-5.9s1-3.8 1.8-5.5 1.7-3.3 2.8-4.7c1.1-1.5 2.4-2.7 3.7-3.7 1.4-1 2.9-1.9 4.5-2.4 1.6-.6 3.3-.9 5.1-.9 2.9 0 5.5.5 7.8 1.5 2.4 1 4.4 2.6 6.1 4.5s3 4.3 3.9 7c1.1 2.7 1.5 5.8 1.5 9.1zm-13.4 1c0-1-.1-2-.4-2.9-.2-1-.6-1.8-1.1-2.5s-1-1.3-1.8-1.8c-.7-.5-1.5-.7-2.4-.7s-1.8.2-2.5.6-1.4.9-1.9 1.6-.9 1.5-1.2 2.4-.4 1.9-.4 2.9.1 2 .4 2.9c.2 1 .6 1.9 1 2.6.5.8 1 1.4 1.8 1.9.7.5 1.5.7 2.5.7.9 0 1.8-.2 2.5-.6s1.4-1 1.9-1.7.9-1.5 1.2-2.5c.2-.9.4-1.9.4-2.9zm52-15c0 1.7-.1 3.6-.2 5.7s-.4 4.2-.7 6.4-.7 4.4-1.2 6.7-1.1 4.4-1.9 6.5-1.6 4.1-2.6 5.9-2.1 3.4-3.5 4.8c-1.3 1.4-2.7 2.4-4.3 3.2s-3.4 1.2-5.3 1.2c-2.3 0-4.3-.5-6-1.3-1.7-.9-3.1-2.1-4.3-3.5-1.2-1.5-2.2-3.2-3-5.1-.8-2-1.4-4.1-1.8-6.2-.5-2.2-.7-4.4-.9-6.7s-.3-4.5-.3-6.6c0-3.2.1-6.5.4-9.7s1-8.5 1-8.5c.1-.6.7-1.1 1.3-1.1l11.6.5c.6 0 1.1.6 1 1.2 0 0-.8 6.2-1.2 9.8-.4 3.7-.6 7.4-.6 11.1v1.8c0 .8.1 1.6.2 2.6l.3 3c.1 1 .4 1.9.6 2.8.3.8.5 1.5 1 2.1.4.5.8.8 1.3.8.6 0 1.1-.3 1.5-1 .5-.6.9-1.5 1.2-2.6.4-1 .6-2.3.9-3.7s.5-2.8.6-4.3c.2-1.5.3-3 .4-4.5s.2-2.9.3-4.2.1-2.5.1-3.5V283c0-1.8 0-3.6-.1-5.4 0-1.8-.2-4.2-.2-4.2 0-.6.5-1.2 1.1-1.2h11.6c.6 0 1.2.5 1.2 1.2.2-.3.5 4.9.5 8.2zm41.6-11.1c.6 0 1.1.5 1.1 1.1l-2.1 44.8c0 .6-.6 1.2-1.2 1.3l-13.2 1.4c-.6.1-1.3-.4-1.5-1l-7.6-23.1c-.2-.6-.4-.6-.4 0l-1.2 23.4c0 .6-.6 1.2-1.2 1.2h-11c-.6 0-1.1-.5-1.1-1.2l1-47c0-.6.5-1.2 1.2-1.2l12.5-.7c.6 0 1.4.4 1.6 1l9.4 22.9c.2.6.5.5.5-.1l.4-21.3c0-.6.5-1.2 1.2-1.2zm37.2 22.1c0 3.2-.4 6.2-1 8.8-.7 2.6-1.7 4.9-3 7s-2.8 3.8-4.6 5.2c-1.8 1.5-3.7 2.6-5.8 3.6s-4.3 1.6-6.7 2.1-4.8.7-7.3.7c-.9 0-1.8 0-2.7-.1-.9 0-1.5-.1-1.5-.1-.6-.1-1.1-.6-1.1-1.3l.8-44.3c0-.6.5-1.3 1.1-1.5 0 0 3.3-1 5.6-1.4 2.3-.3 4.6-.5 6.9-.5 2.8 0 5.4.5 7.8 1.5s4.4 2.4 6.2 4.3c1.7 1.9 3.1 4.2 4 6.9.8 2.6 1.3 5.7 1.3 9.1zm-12.4 2.5v-1.4s0-1.3-.3-2.5c-.2-1.1-.6-2.2-1.2-3.1-.5-.9-1.3-1.6-2.1-2.1-.9-.5-2-.7-2-.7-.6-.1-1.2.4-1.2 1l-1 19.2c0 .6.5 1 1 .8 0 0 1.1-.3 2.1-1s1.8-1.6 2.5-2.6 1.2-2.2 1.6-3.5.5-2.7.5-2.7c0-.7.1-1.3.1-1.4zm69.6-25.5c.6 0 1.1.5 1.1 1.2l-2.6 48.7c0 .6-.6 1.2-1.2 1.2l-11.2.6c-.6 0-1.2-.5-1.1-1.1l.1-24.6c0-.6-.1-.7-.3 0l-5.5 19.4c-.2.6-.8 1.1-1.5 1.1h-2.9c-.6 0-1.3-.5-1.4-1.1l-4.1-17.1c-.1-.6-.3-.6-.3 0V318c0 .6-.5 1.2-1.2 1.2l-11.3.4c-.6 0-1.1-.5-1.1-1.1l.5-45.7c0-.6.5-1.2 1.2-1.2l12.9-.6c.6 0 1.3.5 1.4 1.1l5.4 20.7c.2.6.5.6.7 0l7.3-22.1c.2-.6.9-1.1 1.5-1.1zm39 12c0 1.7-.1 3.6-.2 5.7s-.4 4.2-.7 6.4-.7 4.4-1.2 6.7-1.1 4.4-1.9 6.5-1.6 4.1-2.6 5.9-2.1 3.4-3.5 4.8c-1.3 1.4-2.7 2.4-4.3 3.2s-3.4 1.2-5.3 1.2c-2.3 0-4.3-.5-6-1.3-1.7-.9-3.1-2.1-4.3-3.5-1.2-1.5-2.2-3.2-3-5.1-.8-2-1.4-4.1-1.8-6.2-.5-2.2-.7-4.4-.9-6.7s-.3-4.5-.3-6.6c0-3.2.1-6.5.4-9.7s1-8.5 1-8.5c.1-.6.7-1.1 1.3-1.1l11.6.5c.6 0 1.1.6 1 1.2 0 0-.8 6.2-1.2 9.8-.4 3.7-.6 7.4-.6 11.1v1.8c0 .8.1 1.6.2 2.6l.3 3c.1 1 .4 1.9.6 2.8.3.8.5 1.5 1 2.1.4.5.8.8 1.3.8.6 0 1.1-.3 1.5-1 .5-.6.9-1.5 1.2-2.6.4-1 .6-2.3.9-3.7s.5-2.8.6-4.3c.2-1.5.3-3 .4-4.5s.2-2.9.3-4.2.1-2.5.1-3.5V283c0-1.8 0-3.6-.1-5.4 0-1.8-.2-4.2-.2-4.2 0-.6.5-1.2 1.1-1.2h11.6c.6 0 1.2.5 1.2 1.2.2-.3.5 4.9.5 8.2zm33.5 20.3c0 3.3-.5 6.2-1.5 8.6s-2.3 4.5-4 6.1-3.7 2.9-5.9 3.7c-2.3.8-4.7 1.2-7.3 1.2-1 0-2.1-.1-3.3-.5-1.2-.3-2.4-.7-3.6-1.2s-2.4-1-3.5-1.5-1.9-1-1.9-1c-.6-.3-1-1.1-.9-1.7l1.1-12.4c0-.7.6-.9 1.1-.6 0 0 2.6 1.6 4.7 2.2s4.2.9 6.3.9h1.4c.6 0 1.1-.1 1.6-.3s.9-.5 1.3-.8c.3-.4.5-.9.5-1.6 0-.5-.1-.8-.4-1.2s-.6-.6-.9-.8c-.4-.2-.8-.4-1.3-.5s-1-.2-1.5-.2-.9-.1-1.3-.1h-.9c-1.7 0-3.3-.4-4.7-1.1s-2.6-1.7-3.6-2.9-1.8-2.8-2.3-4.5-.8-3.6-.8-5.6c0-2.8.5-5.3 1.4-7.4 1-2.2 2.2-4.1 3.8-5.6s3.4-2.7 5.5-3.5 4.2-1.2 6.4-1.2c1 0 2 0 3 .1 1.1.1 2.1.2 3.1.5s2 .5 3 .8 1.8.7 1.8.7c.6.3 1 1.1 1 1.7l-1 11.9c0 .6-.6 1-1.2.8 0 0-1.7-.6-3.2-1s-2.9-.6-4.4-.6h-1.1c-.4 0-.8 0-1.2.1-.4 0-.9.1-1.3.3-.4.1-.8.3-1.2.4-.4.2-.6.4-.8.7s-.3.7-.3 1.1c0 .5.2.9.5 1.2s.7.5 1.1.7c.5.2 1 .3 1.5.4s1.1.1 1.7.1h3.1c1.6.1 3.1.5 4.4 1.2s2.4 1.6 3.3 2.8c.9 1.1 1.6 2.5 2.1 4.1.4 1.8.6 3.5.6 5.5zm16.8-30.6c.6 0 1.1.5 1.1 1.1l-3.1 45.1c0 .6-.6 1.2-1.2 1.2l-10.2.6c-.6 0-1.2-.5-1.2-1.1v-44.8c0-.6.5-1.2 1.2-1.2zm31.2-.5c.6.3 1 1 .9 1.6l-1.4 12.3c-.1.6-.6 1-1.3.9l-.6-.1c-.6-.1-1.1-.1-1.7-.1-1.5 0-2.9.2-4.2.7s-2.5 1.1-3.5 2.1c-1 .9-1.8 2.1-2.4 3.5s-.9 3-.9 4.9c0 1.2.2 2.2.5 3.1s.8 1.6 1.4 2.2 1.3 1 2.1 1.3 1.7.4 2.7.4c.7 0 1.5-.1 2.3-.3s1.6-.4 2.3-.7c.8-.3 1.5-.6 2.3-1 .7-.4 1-.6 1-.6.5-.4 1-.1.9.5l-1 14c0 .6-.5 1.4-1.1 1.7 0 0-.6.3-1.5.7s-1.8.7-2.8 1-1.9.5-2.9.6-1.9.2-2.7.2c-2.5 0-4.9-.5-7-1.6-2.2-1.1-4.1-2.6-5.7-4.5s-2.9-4.1-3.8-6.7-1.4-5.4-1.4-8.4c0-4 .5-7.7 1.5-11.2s2.4-6.6 4.3-9.3c1.9-2.6 4.2-4.7 7-6.2s6-2.3 9.6-2.3c1.4 0 2.8.1 4.2.4 1.4.2 2.9.9 2.9.9z" fill="#231f20"/><path d="M60 250.6l-14.3-57.4c-.2-.6-.8-1.1-1.5-1l-18.9 1.1c-.6 0-1.3.5-1.5 1.2L9.2 251.2l.9 1.3 17.2 2c.6.1 1.2-.4 1.4-1l1.5-7.7c.1-.6.7-1.1 1.4-1.1H38c.6 0 1.3.5 1.4 1.1l1.8 7.7c.1.6.8 1 1.4 1l16.6-2.5c.6-.2.9-.8.8-1.4zm-23.5-19.2h-3.4c-.6 0-1.1-.5-1-1.1l2.4-13.1c.1-.6.3-.6.4 0l2.5 13.1c.1.6-.3 1.1-.9 1.1zm62.4-38.5c.6.3 1 1 .9 1.6l-1.9 16.4c-.1.6-.6 1-1.3.9 0 0-.4-.1-1.1-.2s-1.5-.1-2.2-.1c-1.9 0-3.7.3-5.4.9s-3.2 1.5-4.5 2.6c-1.3 1.2-2.4 2.6-3.1 4.4-.8 1.8-1.2 3.9-1.2 6.2 0 1.5.2 2.9.6 4s1 2.1 1.8 2.8 1.7 1.3 2.7 1.6c1 .4 2.2.5 3.4.5 1 0 1.9-.1 3-.4 1-.2 2-.5 3-.9s2-.8 2.9-1.3c1-.5 1.6-.9 1.6-.9.5-.4 1-.1.9.5L97.6 250c0 .6-.5 1.4-1.1 1.7 0 0-1 .5-2.2 1s-2.4.9-3.6 1.2-2.5.6-3.7.8-2.4.3-3.5.3c-3.2 0-6.2-.7-9.1-2.1-2.8-1.4-5.2-3.3-7.3-5.7s-3.7-5.3-4.9-8.6-1.8-6.8-1.8-10.7c0-5.1.6-9.8 1.9-14.3 1.2-4.5 3.1-8.4 5.5-11.8s5.4-6 9-8 7.7-2.9 12.3-2.9c1.8 0 3.6.2 5.4.5 2.1.5 4.4 1.5 4.4 1.5zm46-.8c.6 0 1.1.5 1.1 1.2l-.3 16.5c0 .6-.5 1.2-1.2 1.2l-9.1.4c-.6 0-1.2.6-1.2 1.2l-2.7 39.7c0 .6-.6 1.2-1.2 1.2l-13.8.8c-.6 0-1.2-.5-1.1-1.1l.1-39.7c0-.6-.5-1.1-1.1-1.1l-9.1.5c-.6 0-1.1-.5-1.1-1.1l.4-18.6c0-.6.5-1.2 1.2-1.2zm24.7 1.2c.6 0 1.1.5 1.1 1.1l-4.1 58.1c0 .6-.6 1.2-1.2 1.2l-13.8.8c-.6 0-1.2-.5-1.2-1.1v-57.8c0-.6.5-1.2 1.2-1.2zm54.3.1c.6 0 1 .6.9 1.2l-13.5 59.5c-.1.6-.8 1.2-1.4 1.2l-16.6 1.1c-.6 0-1.3-.4-1.5-1l-16.6-60.1c-.2-.6.2-1.2.9-1.2l15.8-1.7c.6-.1 1.3.4 1.4 1l6.9 34.1c.1.6.3.6.5 0l6.7-34.1c.1-.6.7-1.1 1.4-1zm47.5 57.2c.1.6-.2 1.2-.9 1.3l-16.6 2.5c-.6.1-1.3-.3-1.4-1l-1.8-7.7c-.1-.6-.8-1.1-1.4-1.1H243c-.6 0-1.3.5-1.4 1.1l-1.5 7.7c-.1.6-.7 1.1-1.4 1l-17.2-2c-.6-.1-1-.6-.9-1.3l14.6-56.8c.2-.6.8-1.1 1.5-1.2l18.9-1.1c.6 0 1.3.5 1.5 1zm-23.5-19.2c.6 0 1-.5 1-1.1l-2.5-13.1c-.1-.6-.3-.6-.4 0l-2.4 13.1c-.1.6.3 1.1 1 1.1zm61.1-39.3c.6 0 1.1.5 1.1 1.2l-.3 16.5c0 .6-.5 1.2-1.2 1.2l-9.1.4c-.6 0-1.2.6-1.2 1.2l-2.7 39.7c0 .6-.6 1.2-1.2 1.2l-13.8.8c-.6 0-1.2-.5-1.1-1.1l.1-39.7c0-.6-.5-1.1-1.1-1.1l-9.1.5c-.6 0-1.1-.5-1.1-1.1l.4-18.6c0-.6.5-1.2 1.2-1.2zm41-.4c.6 0 1.1.5 1.1 1.2 0 0-.2 4.4-.4 7.1-.1 2.8-.4 7.2-.4 7.2 0 .6-.6 1.2-1.2 1.2l-14 .8c-.6 0-1.2.6-1.2 1.2l-.2 3.3c0 .6.5 1.2 1.1 1.2h9.1c.6 0 1.1.5 1.1 1.2l-.7 11.5c0 .6-.6 1.2-1.2 1.2l-9.2.4c-.6 0-1.2.6-1.2 1.2l-.2 4.2c0 .6.5 1.2 1.1 1.2h13.9c.6 0 1.2.6 1.1 1.2 0 0-.3 5.4-.4 8.6-.2 3.2-.4 8.6-.4 8.6 0 .6-.6 1.2-1.2 1.2l-30.9.8c-.6 0-1.2-.5-1.2-1.2l1.2-62.3c0-.6.6-1.2 1.2-1.2zm53.9 1.2c.6.3 1 1 .9 1.6l-1.9 16.4c-.1.6-.6 1-1.3.9 0 0-.4-.1-1.1-.2s-1.5-.1-2.2-.1c-1.9 0-3.7.3-5.4.9s-3.2 1.5-4.5 2.6c-1.3 1.2-2.4 2.6-3.1 4.4-.8 1.8-1.2 3.9-1.2 6.2 0 1.5.2 2.9.6 4s1 2.1 1.8 2.8 1.7 1.3 2.7 1.6c1 .4 2.2.5 3.4.5 1 0 1.9-.1 3-.4 1-.2 2-.5 3-.9s2-.8 2.9-1.3c1-.5 1.6-.9 1.6-.9.5-.4 1-.1.9.5l-1.4 18.5c0 .6-.5 1.4-1.1 1.7 0 0-1 .5-2.2 1-1.1.5-2.4.9-3.6 1.2s-2.5.6-3.7.8-2.4.3-3.5.3c-3.2 0-6.2-.7-9.1-2.1-2.8-1.4-5.2-3.3-7.3-5.7s-3.7-5.3-4.9-8.6-1.8-6.8-1.8-10.7c0-5.1.6-9.8 1.9-14.3 1.2-4.5 3.1-8.4 5.5-11.8s5.4-6 9-8 7.7-2.9 12.3-2.9c1.8 0 3.6.2 5.4.5 2.1.5 4.4 1.5 4.4 1.5zm51.4 61.8c0 .6-.5 1.2-1.1 1.2l-16.8 1c-.6 0-1.2-.5-1.2-1.1l-.1-18.3c0-.6-.6-1.2-1.2-1.2h-6.5c-.6 0-1.2.6-1.2 1.2l-.5 17.2c0 .6-.6 1.2-1.2 1.2h-14.7c-.6 0-1.1-.5-1.1-1.2l1.4-60.3c0-.6.5-1.1 1.2-1.1l15.9.9c.6 0 1.1.6 1.1 1.2l-1 29.7c0 .6.5 1.2 1.1 1.2h6.2c.6 0 1.2-.5 1.2-1.2l.1-32c0-.6.5-1.1 1.2-1.1l15.1.5c.6 0 1.2.5 1.2 1.2zm24.7-61.4c.6 0 1.1.5 1.1 1.1l-4.1 58.1c0 .6-.6 1.2-1.2 1.2l-13.8.8c-.6 0-1.2-.5-1.2-1.1v-57.8c0-.6.5-1.2 1.2-1.2zm38.4 37.6c.6 0 1.2.5 1.1 1.2l-1.4 17.7c0 .6-.6 1.3-1.3 1.3l-30.4 2.8c-.6 0-1.2-.4-1.2-1.1 0 0 .3-19.8.5-30.1.2-10.4.7-30.1.7-30.1 0-.6.6-1.2 1.2-1.2h17.8c.6 0 1.1.5 1.1 1.1 0 0-1.1 11.9-1.6 18.3-.5 6.5-1.1 18.5-1.1 18.5 0 .6.5 1.2 1.1 1.2h5.9l4.2.5h3.4zm37.9 0c.6 0 1.2.5 1.1 1.2l-1.4 17.7c0 .6-.6 1.3-1.3 1.3l-30.4 2.8c-.6 0-1.2-.4-1.2-1.1 0 0 .3-19.8.5-30.1.2-10.4.7-30.1.7-30.1 0-.6.6-1.2 1.2-1.2h17.8c.6 0 1.1.5 1.1 1.1 0 0-1.1 11.9-1.6 18.3-.5 6.5-1.1 18.5-1.1 18.5 0 .6.5 1.2 1.1 1.2h5.9l4.2.5h3.4zM41.8 296c-.4-1.4-1-2.6-1.7-3.7s-1.6-2-2.7-2.8-2.4-1.3-2.4-1.3c-.6-.3-.6-.6 0-.9 0 0 .9-.4 1.8-1s1.6-1.4 2.2-2.3 1-1.9 1.4-3.1c.3-1.1.5-2.3.5-3.6 0-2-.2-3.7-.7-5.2s-1.1-2.8-2-4c-.9-1.1-1.9-2.1-3-2.9s-2.4-1.4-3.7-1.9-2.7-.8-4.1-1-2.8-.3-4.2-.3c-1.2 0-2.5.1-3.7.2-1.3.2-2.6.4-3.9.7s-2.6.7-3.8 1.1l.1 47.8c1.3.5 2.6.8 3.9 1 1.3.3 2.6.5 3.9.5 1.3.1 2.6.1 3.8.1s2.6 0 4-.2c1.4-.1 2.9-.3 4.3-.7s2.8-.9 4.1-1.5 2.5-1.4 3.5-2.4 1.8-2.1 2.4-3.6c.6-1.4.9-3.1.9-5-.3-1.2-.4-2.7-.9-4zm-14.7 2.4c-.3.5-.6 1-1.1 1.3s-.9.5-1.4.6-1 .1-1.4.1c-.3 0-.6 0-.9-.1H22c-.4-.1-.6-.7-.6-1.3l.1-5.6c0-.6.5-1.2 1.1-1.4h.6c.4 0 .9 0 1.4.1s1 .3 1.4.6.8.8 1 1.3c.3.5.4 1.3.4 2.1.1 1 0 1.7-.3 2.3zm-.2-15.4c-.5.6-1 1.1-1.6 1.4s-1.3.5-2 .6l-.7.1c-.6 0-1-.5-1-1.1l.2-5.4c0-.6.3-1.3.7-1.5l.4-.1c.4-.1.7-.2 1.1-.2.3 0 .7.1 1.1.2.4.2.8.4 1.1.7s.6.7.9 1.2c.2.5.4 1 .4 1.7 0 1-.2 1.8-.6 2.4zm55.4 25.8c.1.6-.2 1.2-.9 1.3L69.1 312c-.6.1-1.3-.3-1.4-1l-1.3-5.6c-.1-.6-.8-1.1-1.4-1.1h-4.4c-.6 0-1.3.5-1.4 1.1l-1 5.6c-.1.6-.7 1.1-1.4 1L44 310.5c-.6-.1-1-.6-.9-1.3l11.3-44.1c.1-.6.8-1.1 1.5-1.2l14.2-.8c.6 0 1.3.5 1.5 1zm-18.4-15.5c.6 0 1-.5 1-1.1l-1.8-9.8c-.1-.6-.3-.6-.4 0l-1.8 9.8c-.1.6.3 1.1 1 1.1zm46.9-30c.6.3 1 1 .9 1.6l-1.4 12.3c-.1.6-.6 1-1.3.9l-.6-.1c-.6-.1-1.1-.1-1.7-.1-1.5 0-2.9.2-4.2.7s-2.5 1.1-3.5 2.1c-1 .9-1.8 2.1-2.4 3.5s-.9 3-.9 4.9c0 1.2.2 2.2.5 3.1s.8 1.6 1.4 2.2 1.3 1 2.1 1.3 1.7.4 2.7.4c.7 0 1.5-.1 2.3-.3s1.6-.4 2.3-.7c.8-.3 1.5-.6 2.3-1 .7-.4 1-.6 1-.6.5-.4 1-.1.9.5l-1 14c0 .6-.5 1.4-1.1 1.7 0 0-.6.3-1.5.7s-1.8.7-2.8 1-1.9.5-2.9.6-1.9.2-2.7.2c-2.5 0-4.9-.5-7-1.6-2.2-1.1-4.1-2.6-5.7-4.5s-2.9-4.1-3.8-6.7-1.4-5.4-1.4-8.4c0-4 .5-7.7 1.5-11.2s2.4-6.6 4.3-9.3c1.9-2.6 4.2-4.7 7-6.2s6-2.3 9.6-2.3c1.4 0 2.8.1 4.2.4 1.4.2 2.9.9 2.9.9zm40.2-.5c.6 0 .9.5.5 1.1l-13.1 21.2c-.3.5-.4 1.5-.1 2.1l11 22.6c.3.6 0 1.1-.6 1.3l-11.5 2.4c-.6.1-1.4-.2-1.7-.8l-7.8-13c-.3-.5-.6-.5-.6.2l-.4 13.4c0 .6-.5 1.2-1.2 1.2l-10 .5c-.6 0-1.1-.5-1.1-1.1l.9-50.9c0-.6.5-1.1 1.2-1.1l11.5.8c.6 0 1.1.6 1.1 1.2l-.9 13.4c0 .6.2.7.5.1l8.1-14.6c.3-.5 1.1-1 1.7-.9zm33.9 41.4c0 .6-.3 1.6-.7 2 0 0-1.3 1.6-2.7 2.7-1.4 1-2.8 1.8-4.3 2.5s-3.1 1.2-4.8 1.5c-1.6.3-3.2.5-4.6.5-2.8 0-5.4-.6-7.8-1.8s-4.5-2.8-6.2-5c-1.7-2.1-3.1-4.5-4.1-7.4-1-2.8-1.5-5.9-1.5-9.2 0-2.5.2-5 .7-7.3.5-2.4 1.2-4.6 2.1-6.8.9-2.1 2-4.1 3.3-5.9s2.8-3.3 4.5-4.6 3.5-2.3 5.4-3c2-.7 4.1-1.1 6.3-1.1.9 0 1.8 0 2.7.1s1.9.2 2.9.4c.9.2 1.9.5 2.8.8.9.4 1.5.7 1.5.7.5.3.9 1.1.9 1.8l-.7 10.8c0 .6-.5 1-1.2.8 0 0-1.1-.4-2.3-.6s-2.3-.3-3.4-.3c-1.6 0-3 .3-4.4.9-1.4.5-2.5 1.4-3.6 2.4-1 1-1.8 2.3-2.4 3.8s-.9 3.2-.9 5.1c0 1.2.1 2.3.4 3.5.3 1.1.7 2.1 1.3 3 .5.9 1.3 1.5 2.1 2.1.8.5 1.8.8 2.9.8.7 0 1.5-.1 2.3-.4.8-.2 1.1-.5 1.1-.5.5-.4.9-1.2 1-1.8v-.4c0-.6-.5-1.2-1.1-1.2l-4.7-.1c-.6 0-1.1-.5-1.1-1.2l.3-8c0-.6.5-1.2 1.2-1.2 0 0 4.7-.2 7.6-.3s7.7-.3 7.7-.3c.6 0 1.2.5 1.2 1.1zm38-25.2c0 1.8-.1 3.5-.4 4.9-.3 1.5-.7 2.8-1.3 4.1s-1.3 2.4-2.2 3.4-2.4 2.2-2.4 2.2c-.5.4-.7 1.2-.4 1.8l6.1 12.7c.3.6 0 1.2-.6 1.3l-11.1 2.6c-.6.1-1.3-.2-1.5-.9l-3.9-12.6c-.2-.6-.9-1.1-1.5-1h-1.4c-.6 0-1.2.5-1.2 1.2l-.5 12.1c0 .6-.5 1.2-1.2 1.2H189c-.6 0-1.1-.5-1.1-1.2 0 0 .2-9.4.3-14.6s.2-10.5.3-15.8c0-2.7.1-5.3.1-7.9s.2-6.7.2-6.7c0-.6.5-1.4 1.1-1.6 0 0 1.7-.7 3-1 1.4-.4 2.7-.7 4.1-.9s2.7-.4 4.1-.5 2.8-.1 4.3-.1c2.3 0 4.4.4 6.6 1.1 2.1.7 4 1.8 5.6 3.3s2.9 3.3 3.9 5.5c.9 1.9 1.4 4.5 1.4 7.4zm-13.6 1.3c0-1-.1-1.9-.3-2.7s-.5-1.5-1-2.1-1-1-1.6-1.4c-.7-.3-1.5-.5-2.3-.5-.4 0-.8 0-1.1.1h-.4c-.4.1-.7.7-.8 1.4l-.4 10.6c0 .6.1 1.2.3 1.2s.9 0 1.5-.1c0 0 .5 0 1.4-.3s1.7-.6 2.4-1.2 1.3-1.2 1.7-2.1c.4-.8.6-1.7.6-2.9zm52.4 7.9c0 2.1-.2 4.1-.6 6.1s-1 3.8-1.8 5.5-1.7 3.3-2.9 4.7c-1.1 1.4-2.4 2.6-3.8 3.7-1.4 1-2.9 1.8-4.6 2.4s-3.4.9-5.2.9-3.5-.3-5.1-.8-3.1-1.3-4.5-2.2c-1.4-1-2.7-2.1-3.8-3.5s-2.1-2.9-2.9-4.5-1.4-3.4-1.9-5.3-.7-3.9-.7-6c0-2 .2-4 .6-5.9s1-3.8 1.8-5.5 1.7-3.3 2.8-4.7c1.1-1.5 2.4-2.7 3.7-3.7 1.4-1 2.9-1.9 4.5-2.4 1.6-.6 3.3-.9 5.1-.9 2.9 0 5.5.5 7.8 1.5 2.4 1 4.4 2.6 6.1 4.5s3 4.3 3.9 7c1.1 2.6 1.5 5.7 1.5 9.1zm-13.4.9c0-1-.1-2-.4-2.9-.2-1-.6-1.8-1.1-2.5s-1-1.3-1.8-1.8c-.7-.5-1.5-.7-2.4-.7s-1.8.2-2.5.6-1.4.9-1.9 1.6-.9 1.5-1.2 2.4-.4 1.9-.4 2.9.1 2 .4 2.9c.2 1 .6 1.9 1 2.6.5.8 1 1.4 1.8 1.9.7.5 1.5.7 2.5.7.9 0 1.8-.2 2.5-.6s1.4-1 1.9-1.7.9-1.5 1.2-2.5c.2-.9.4-1.9.4-2.9zm52-15.2c0 1.7-.1 3.6-.2 5.7s-.4 4.2-.7 6.4-.7 4.4-1.2 6.7-1.1 4.4-1.9 6.5-1.6 4.1-2.6 5.9-2.1 3.4-3.5 4.8c-1.3 1.4-2.7 2.4-4.3 3.2s-3.4 1.2-5.3 1.2c-2.3 0-4.3-.5-6-1.3-1.7-.9-3.1-2.1-4.3-3.5-1.2-1.5-2.2-3.2-3-5.1-.8-2-1.4-4.1-1.8-6.2s-.7-4.4-.9-6.7-.3-4.5-.3-6.6c0-3.2.1-6.5.4-9.7s1-8.5 1-8.5c.1-.6.7-1.1 1.3-1.1l11.6.5c.6 0 1.1.6 1 1.2 0 0-.8 6.2-1.2 9.8-.4 3.7-.6 7.4-.6 11.1v1.8c0 .8.1 1.6.2 2.6l.3 3c.1 1 .4 1.9.6 2.8.3.8.5 1.5 1 2.1.4.5.8.8 1.3.8.6 0 1.1-.3 1.5-1 .5-.6.9-1.5 1.2-2.6.4-1 .6-2.3.9-3.7s.5-2.8.6-4.3c.2-1.5.3-3 .4-4.5s.2-2.9.3-4.2.1-2.5.1-3.5v-2.2c0-1.8 0-3.6-.1-5.4 0-1.8-.2-4.2-.2-4.2 0-.6.5-1.2 1.1-1.2h11.6c.6 0 1.2.5 1.2 1.2.2-.4.5 4.9.5 8.2zm41.6-11.2c.6 0 1.1.5 1.1 1.1l-2.1 44.8c0 .6-.6 1.2-1.2 1.3l-13.2 1.4c-.6.1-1.3-.4-1.5-1l-7.6-23c-.2-.6-.4-.6-.4 0l-1.2 23.4c0 .6-.6 1.2-1.2 1.2h-11c-.6 0-1.1-.5-1.1-1.2l1-47c0-.6.5-1.2 1.2-1.2l12.5-.7c.6 0 1.4.4 1.6 1l9.4 22.9c.2.6.5.5.5-.1l.4-21.3c0-.6.5-1.2 1.2-1.2zm37.2 22.4c0 3.2-.4 6.2-1 8.8-.7 2.6-1.7 4.9-3 7s-2.8 3.8-4.6 5.2c-1.8 1.5-3.7 2.6-5.8 3.6s-4.3 1.6-6.7 2.1-4.8.7-7.3.7c-.9 0-1.8 0-2.7-.1-.9 0-1.5-.1-1.5-.1-.6-.1-1.1-.6-1.1-1.3l.8-44.3c0-.6.5-1.3 1.1-1.5 0 0 3.3-1 5.6-1.4 2.3-.3 4.6-.5 6.9-.5 2.8 0 5.4.5 7.8 1.5s4.4 2.4 6.2 4.3c1.7 1.9 3.1 4.2 4 6.9.8 2.6 1.3 5.7 1.3 9.1zm-12.4 2.5v-1.4s0-1.3-.3-2.5c-.2-1.1-.6-2.2-1.2-3.1-.5-.9-1.3-1.6-2.1-2.1-.9-.5-2-.7-2-.7-.6-.1-1.2.4-1.2 1l-1 19.2c0 .6.5 1 1 .8 0 0 1.1-.3 2.1-1s1.8-1.6 2.5-2.6 1.2-2.2 1.6-3.5.5-2.7.5-2.7c0-.7.1-1.3.1-1.4zm69.4-25.7c.6 0 1.1.5 1.1 1.2l-2.5 48.6c0 .6-.6 1.2-1.2 1.2l-11.2.6c-.6 0-1.2-.5-1.1-1.1l.1-24.6c0-.6-.1-.7-.3 0l-5.4 19.4c-.2.6-.8 1.1-1.5 1.1H411c-.6 0-1.3-.5-1.4-1.1l-4.1-17.1c-.1-.6-.3-.6-.3 0v20.2c0 .6-.5 1.2-1.2 1.2l-11.3.4c-.6 0-1.1-.5-1.1-1.1l.5-45.7c0-.6.5-1.2 1.2-1.2l12.9-.6c.6 0 1.3.5 1.5 1.1l5.4 20.7c.2.6.5.6.7 0L421 263c.2-.6.9-1.1 1.5-1.1zm39.2 12c0 1.7-.1 3.6-.2 5.7s-.4 4.2-.7 6.4-.7 4.4-1.2 6.7-1.1 4.4-1.9 6.5-1.6 4.1-2.6 5.9-2.1 3.4-3.5 4.8c-1.3 1.4-2.7 2.4-4.3 3.2s-3.4 1.2-5.3 1.2c-2.3 0-4.3-.5-6-1.3-1.7-.9-3.1-2.1-4.3-3.5-1.2-1.5-2.2-3.2-3-5.1-.8-2-1.4-4.1-1.8-6.2s-.7-4.4-.9-6.7-.3-4.5-.3-6.6c0-3.2.1-6.5.4-9.7s1-8.5 1-8.5c.1-.6.7-1.1 1.3-1.1l11.6.5c.6 0 1.1.6 1 1.2 0 0-.8 6.2-1.2 9.8-.4 3.7-.6 7.4-.6 11.1v1.8c0 .8.1 1.6.2 2.6l.3 3c.1 1 .4 1.9.6 2.8.3.8.5 1.5 1 2.1.4.5.8.8 1.3.8.6 0 1.1-.3 1.5-1 .5-.6.9-1.5 1.2-2.6.4-1 .6-2.3.9-3.7s.5-2.8.6-4.3c.2-1.5.3-3 .4-4.5s.2-2.9.3-4.2.1-2.5.1-3.5v-2.2c0-1.8 0-3.6-.1-5.4 0-1.8-.2-4.2-.2-4.2 0-.6.5-1.2 1.1-1.2h11.6c.6 0 1.2.5 1.2 1.2.2-.4.5 4.9.5 8.2zm32.9 20.2c0 3.2-.5 5.9-1.4 8.3s-2.2 4.3-3.8 5.9-3.5 2.8-5.7 3.5c-2.2.8-4.5 1.2-7 1.2-.9 0-2-.1-3.2-.5s-2.3-.7-3.5-1.1c-1.2-.5-2.3-.9-3.4-1.4s-1.9-.9-1.9-.9c-.5-.3-1-1-.9-1.7l1.1-11.9c0-.6.5-.9 1.1-.6 0 0 2.5 1.5 4.6 2.1 2 .6 4 .9 6 .9h1.4c.5 0 1-.1 1.5-.3s.9-.5 1.2-.8c.3-.4.5-.9.5-1.5 0-.5-.1-.8-.4-1.1s-.5-.5-.9-.8c-.4-.2-.8-.4-1.3-.5s-.9-.2-1.4-.2-.9-.1-1.3-.1h-1c-1.7 0-3.3-.4-4.7-1.1s-2.6-1.7-3.6-2.9-1.8-2.8-2.3-4.5-.8-3.6-.8-5.6c0-2.8.5-5.3 1.4-7.4 1-2.2 2.2-4.1 3.8-5.6s3.4-2.7 5.5-3.5 4.2-1.2 6.4-1.2c1 0 2 0 3 .1 1.1.1 2.1.2 3.1.5s2 .5 3 .8 1.8.7 1.8.7c.6.3 1 1.1 1 1.7l-1 11.9c0 .6-.6 1-1.2.8 0 0-1.7-.6-3.2-1s-2.9-.6-4.4-.6h-.9c-.4 0-.9 0-1.3.1-.5 0-1 .1-1.4.3s-.9.3-1.3.5-.7.5-.9.8-.3.8-.3 1.2c0 .5.2 1 .5 1.3s.7.6 1.2.8 1.1.3 1.7.4 1.2.1 1.8.1H498c1.6.1 3 .5 4.2 1.2s2.3 1.5 3.2 2.7c.9 1.1 1.5 2.4 2 3.9.6 1.5.8 3.2.8 5.1zm17.3-30.3c.6 0 1.1.5 1.1 1.1l-3.1 45.1c0 .6-.6 1.2-1.2 1.2l-10.2.6c-.6 0-1.2-.5-1.2-1.1v-44.8c0-.6.5-1.2 1.2-1.2zm31.3-.5c.6.3 1 1 .9 1.6l-1.4 12.3c-.1.6-.6 1-1.3.9l-.6-.1c-.6-.1-1.1-.1-1.7-.1-1.5 0-2.9.2-4.2.7s-2.5 1.1-3.5 2.1c-1 .9-1.8 2.1-2.4 3.5s-.9 3-.9 4.9c0 1.2.2 2.2.5 3.1s.8 1.6 1.4 2.2 1.3 1 2.1 1.3 1.7.4 2.7.4c.7 0 1.5-.1 2.3-.3s1.6-.4 2.3-.7c.8-.3 1.5-.6 2.3-1 .7-.4 1-.6 1-.6.5-.4 1-.1.9.5l-1 14c0 .6-.5 1.4-1.1 1.7 0 0-.6.3-1.5.7s-1.8.7-2.8 1-1.9.5-2.9.6-1.9.2-2.7.2c-2.5 0-4.9-.5-7-1.6-2.2-1.1-4.1-2.6-5.7-4.5s-2.9-4.1-3.8-6.7-1.4-5.4-1.4-8.4c0-4 .5-7.7 1.5-11.2s2.4-6.6 4.3-9.3c1.9-2.6 4.2-4.7 7-6.2s6-2.3 9.6-2.3c1.4 0 2.8.1 4.2.4 1.4.2 2.9.9 2.9.9z" fill="#fff"/></svg>